%TF.GenerationSoftware,KiCad,Pcbnew,8.0.8*%
%TF.CreationDate,2025-05-29T15:04:49-04:00*%
%TF.ProjectId,meowwww x3,6d656f77-7777-4772-9078-332e6b696361,rev?*%
%TF.SameCoordinates,Original*%
%TF.FileFunction,Legend,Top*%
%TF.FilePolarity,Positive*%
%FSLAX46Y46*%
G04 Gerber Fmt 4.6, Leading zero omitted, Abs format (unit mm)*
G04 Created by KiCad (PCBNEW 8.0.8) date 2025-05-29 15:04:49*
%MOMM*%
%LPD*%
G01*
G04 APERTURE LIST*
%ADD10C,0.150000*%
%ADD11C,0.152400*%
%ADD12C,0.120000*%
%ADD13C,0.127000*%
%ADD14C,0.240000*%
G04 APERTURE END LIST*
D10*
X106069065Y-89599925D02*
X106706486Y-89599925D01*
X106706486Y-89599925D02*
X106781476Y-89562430D01*
X106781476Y-89562430D02*
X106818972Y-89524934D01*
X106818972Y-89524934D02*
X106856467Y-89449944D01*
X106856467Y-89449944D02*
X106856467Y-89299962D01*
X106856467Y-89299962D02*
X106818972Y-89224972D01*
X106818972Y-89224972D02*
X106781476Y-89187476D01*
X106781476Y-89187476D02*
X106706486Y-89149981D01*
X106706486Y-89149981D02*
X106069065Y-89149981D01*
X106331532Y-88437570D02*
X106856467Y-88437570D01*
X106031570Y-88625047D02*
X106594000Y-88812523D01*
X106594000Y-88812523D02*
X106594000Y-88325084D01*
X94717438Y-101936667D02*
X93384104Y-101936667D01*
X93765057Y-101936667D02*
X93574580Y-101841429D01*
X93574580Y-101841429D02*
X93479342Y-101746191D01*
X93479342Y-101746191D02*
X93384104Y-101555715D01*
X93384104Y-101555715D02*
X93384104Y-101365238D01*
X94717438Y-99841429D02*
X93669819Y-99841429D01*
X93669819Y-99841429D02*
X93479342Y-99936667D01*
X93479342Y-99936667D02*
X93384104Y-100127143D01*
X93384104Y-100127143D02*
X93384104Y-100508096D01*
X93384104Y-100508096D02*
X93479342Y-100698572D01*
X94622200Y-99841429D02*
X94717438Y-100031905D01*
X94717438Y-100031905D02*
X94717438Y-100508096D01*
X94717438Y-100508096D02*
X94622200Y-100698572D01*
X94622200Y-100698572D02*
X94431723Y-100793810D01*
X94431723Y-100793810D02*
X94241247Y-100793810D01*
X94241247Y-100793810D02*
X94050771Y-100698572D01*
X94050771Y-100698572D02*
X93955533Y-100508096D01*
X93955533Y-100508096D02*
X93955533Y-100031905D01*
X93955533Y-100031905D02*
X93860295Y-99841429D01*
X94622200Y-98984286D02*
X94717438Y-98793810D01*
X94717438Y-98793810D02*
X94717438Y-98412858D01*
X94717438Y-98412858D02*
X94622200Y-98222381D01*
X94622200Y-98222381D02*
X94431723Y-98127143D01*
X94431723Y-98127143D02*
X94336485Y-98127143D01*
X94336485Y-98127143D02*
X94146009Y-98222381D01*
X94146009Y-98222381D02*
X94050771Y-98412858D01*
X94050771Y-98412858D02*
X94050771Y-98698572D01*
X94050771Y-98698572D02*
X93955533Y-98889048D01*
X93955533Y-98889048D02*
X93765057Y-98984286D01*
X93765057Y-98984286D02*
X93669819Y-98984286D01*
X93669819Y-98984286D02*
X93479342Y-98889048D01*
X93479342Y-98889048D02*
X93384104Y-98698572D01*
X93384104Y-98698572D02*
X93384104Y-98412858D01*
X93384104Y-98412858D02*
X93479342Y-98222381D01*
X94717438Y-97270000D02*
X92717438Y-97270000D01*
X93479342Y-97270000D02*
X93384104Y-97079524D01*
X93384104Y-97079524D02*
X93384104Y-96698571D01*
X93384104Y-96698571D02*
X93479342Y-96508095D01*
X93479342Y-96508095D02*
X93574580Y-96412857D01*
X93574580Y-96412857D02*
X93765057Y-96317619D01*
X93765057Y-96317619D02*
X94336485Y-96317619D01*
X94336485Y-96317619D02*
X94526961Y-96412857D01*
X94526961Y-96412857D02*
X94622200Y-96508095D01*
X94622200Y-96508095D02*
X94717438Y-96698571D01*
X94717438Y-96698571D02*
X94717438Y-97079524D01*
X94717438Y-97079524D02*
X94622200Y-97270000D01*
X94622200Y-94698571D02*
X94717438Y-94889047D01*
X94717438Y-94889047D02*
X94717438Y-95270000D01*
X94717438Y-95270000D02*
X94622200Y-95460476D01*
X94622200Y-95460476D02*
X94431723Y-95555714D01*
X94431723Y-95555714D02*
X93669819Y-95555714D01*
X93669819Y-95555714D02*
X93479342Y-95460476D01*
X93479342Y-95460476D02*
X93384104Y-95270000D01*
X93384104Y-95270000D02*
X93384104Y-94889047D01*
X93384104Y-94889047D02*
X93479342Y-94698571D01*
X93479342Y-94698571D02*
X93669819Y-94603333D01*
X93669819Y-94603333D02*
X93860295Y-94603333D01*
X93860295Y-94603333D02*
X94050771Y-95555714D01*
X94717438Y-93746190D02*
X93384104Y-93746190D01*
X93765057Y-93746190D02*
X93574580Y-93650952D01*
X93574580Y-93650952D02*
X93479342Y-93555714D01*
X93479342Y-93555714D02*
X93384104Y-93365238D01*
X93384104Y-93365238D02*
X93384104Y-93174761D01*
X94717438Y-92508095D02*
X93384104Y-92508095D01*
X93765057Y-92508095D02*
X93574580Y-92412857D01*
X93574580Y-92412857D02*
X93479342Y-92317619D01*
X93479342Y-92317619D02*
X93384104Y-92127143D01*
X93384104Y-92127143D02*
X93384104Y-91936666D01*
X93384104Y-91460476D02*
X94717438Y-90984286D01*
X93384104Y-90508095D02*
X94717438Y-90984286D01*
X94717438Y-90984286D02*
X95193628Y-91174762D01*
X95193628Y-91174762D02*
X95288866Y-91270000D01*
X95288866Y-91270000D02*
X95384104Y-91460476D01*
X93384104Y-88222380D02*
X95384104Y-88222380D01*
X93479342Y-88222380D02*
X93384104Y-88031904D01*
X93384104Y-88031904D02*
X93384104Y-87650951D01*
X93384104Y-87650951D02*
X93479342Y-87460475D01*
X93479342Y-87460475D02*
X93574580Y-87365237D01*
X93574580Y-87365237D02*
X93765057Y-87269999D01*
X93765057Y-87269999D02*
X94336485Y-87269999D01*
X94336485Y-87269999D02*
X94526961Y-87365237D01*
X94526961Y-87365237D02*
X94622200Y-87460475D01*
X94622200Y-87460475D02*
X94717438Y-87650951D01*
X94717438Y-87650951D02*
X94717438Y-88031904D01*
X94717438Y-88031904D02*
X94622200Y-88222380D01*
X94717438Y-86412856D02*
X93384104Y-86412856D01*
X92717438Y-86412856D02*
X92812676Y-86508094D01*
X92812676Y-86508094D02*
X92907914Y-86412856D01*
X92907914Y-86412856D02*
X92812676Y-86317618D01*
X92812676Y-86317618D02*
X92717438Y-86412856D01*
X92717438Y-86412856D02*
X92907914Y-86412856D01*
X93384104Y-83936665D02*
X95384104Y-83936665D01*
X93479342Y-83936665D02*
X93384104Y-83746189D01*
X93384104Y-83746189D02*
X93384104Y-83365236D01*
X93384104Y-83365236D02*
X93479342Y-83174760D01*
X93479342Y-83174760D02*
X93574580Y-83079522D01*
X93574580Y-83079522D02*
X93765057Y-82984284D01*
X93765057Y-82984284D02*
X94336485Y-82984284D01*
X94336485Y-82984284D02*
X94526961Y-83079522D01*
X94526961Y-83079522D02*
X94622200Y-83174760D01*
X94622200Y-83174760D02*
X94717438Y-83365236D01*
X94717438Y-83365236D02*
X94717438Y-83746189D01*
X94717438Y-83746189D02*
X94622200Y-83936665D01*
X94717438Y-82127141D02*
X93384104Y-82127141D01*
X92717438Y-82127141D02*
X92812676Y-82222379D01*
X92812676Y-82222379D02*
X92907914Y-82127141D01*
X92907914Y-82127141D02*
X92812676Y-82031903D01*
X92812676Y-82031903D02*
X92717438Y-82127141D01*
X92717438Y-82127141D02*
X92907914Y-82127141D01*
X94622200Y-80317617D02*
X94717438Y-80508093D01*
X94717438Y-80508093D02*
X94717438Y-80889046D01*
X94717438Y-80889046D02*
X94622200Y-81079522D01*
X94622200Y-81079522D02*
X94526961Y-81174760D01*
X94526961Y-81174760D02*
X94336485Y-81269998D01*
X94336485Y-81269998D02*
X93765057Y-81269998D01*
X93765057Y-81269998D02*
X93574580Y-81174760D01*
X93574580Y-81174760D02*
X93479342Y-81079522D01*
X93479342Y-81079522D02*
X93384104Y-80889046D01*
X93384104Y-80889046D02*
X93384104Y-80508093D01*
X93384104Y-80508093D02*
X93479342Y-80317617D01*
X94717438Y-79174760D02*
X94622200Y-79365236D01*
X94622200Y-79365236D02*
X94526961Y-79460474D01*
X94526961Y-79460474D02*
X94336485Y-79555712D01*
X94336485Y-79555712D02*
X93765057Y-79555712D01*
X93765057Y-79555712D02*
X93574580Y-79460474D01*
X93574580Y-79460474D02*
X93479342Y-79365236D01*
X93479342Y-79365236D02*
X93384104Y-79174760D01*
X93384104Y-79174760D02*
X93384104Y-78889045D01*
X93384104Y-78889045D02*
X93479342Y-78698569D01*
X93479342Y-78698569D02*
X93574580Y-78603331D01*
X93574580Y-78603331D02*
X93765057Y-78508093D01*
X93765057Y-78508093D02*
X94336485Y-78508093D01*
X94336485Y-78508093D02*
X94526961Y-78603331D01*
X94526961Y-78603331D02*
X94622200Y-78698569D01*
X94622200Y-78698569D02*
X94717438Y-78889045D01*
X94717438Y-78889045D02*
X94717438Y-79174760D01*
X79414104Y-89396190D02*
X79985533Y-87872381D01*
X79985533Y-87872381D02*
X80556961Y-89396190D01*
X80747438Y-86920000D02*
X78747438Y-86920000D01*
X78747438Y-86920000D02*
X80747438Y-85777143D01*
X80747438Y-85777143D02*
X78747438Y-85777143D01*
X80176009Y-84920000D02*
X80176009Y-83967619D01*
X80747438Y-85110476D02*
X78747438Y-84443810D01*
X78747438Y-84443810D02*
X80747438Y-83777143D01*
X80747438Y-83110476D02*
X78747438Y-83110476D01*
X78747438Y-83110476D02*
X80176009Y-82443809D01*
X80176009Y-82443809D02*
X78747438Y-81777143D01*
X78747438Y-81777143D02*
X80747438Y-81777143D01*
X79699819Y-80824762D02*
X79699819Y-80158095D01*
X80747438Y-79872381D02*
X80747438Y-80824762D01*
X80747438Y-80824762D02*
X78747438Y-80824762D01*
X78747438Y-80824762D02*
X78747438Y-79872381D01*
X68088095Y-50569819D02*
X68088095Y-51379342D01*
X68088095Y-51379342D02*
X68135714Y-51474580D01*
X68135714Y-51474580D02*
X68183333Y-51522200D01*
X68183333Y-51522200D02*
X68278571Y-51569819D01*
X68278571Y-51569819D02*
X68469047Y-51569819D01*
X68469047Y-51569819D02*
X68564285Y-51522200D01*
X68564285Y-51522200D02*
X68611904Y-51474580D01*
X68611904Y-51474580D02*
X68659523Y-51379342D01*
X68659523Y-51379342D02*
X68659523Y-50569819D01*
X69659523Y-51569819D02*
X69088095Y-51569819D01*
X69373809Y-51569819D02*
X69373809Y-50569819D01*
X69373809Y-50569819D02*
X69278571Y-50712676D01*
X69278571Y-50712676D02*
X69183333Y-50807914D01*
X69183333Y-50807914D02*
X69088095Y-50855533D01*
X119690476Y-64657200D02*
X119833333Y-64704819D01*
X119833333Y-64704819D02*
X120071428Y-64704819D01*
X120071428Y-64704819D02*
X120166666Y-64657200D01*
X120166666Y-64657200D02*
X120214285Y-64609580D01*
X120214285Y-64609580D02*
X120261904Y-64514342D01*
X120261904Y-64514342D02*
X120261904Y-64419104D01*
X120261904Y-64419104D02*
X120214285Y-64323866D01*
X120214285Y-64323866D02*
X120166666Y-64276247D01*
X120166666Y-64276247D02*
X120071428Y-64228628D01*
X120071428Y-64228628D02*
X119880952Y-64181009D01*
X119880952Y-64181009D02*
X119785714Y-64133390D01*
X119785714Y-64133390D02*
X119738095Y-64085771D01*
X119738095Y-64085771D02*
X119690476Y-63990533D01*
X119690476Y-63990533D02*
X119690476Y-63895295D01*
X119690476Y-63895295D02*
X119738095Y-63800057D01*
X119738095Y-63800057D02*
X119785714Y-63752438D01*
X119785714Y-63752438D02*
X119880952Y-63704819D01*
X119880952Y-63704819D02*
X120119047Y-63704819D01*
X120119047Y-63704819D02*
X120261904Y-63752438D01*
X120595238Y-63704819D02*
X120833333Y-64704819D01*
X120833333Y-64704819D02*
X121023809Y-63990533D01*
X121023809Y-63990533D02*
X121214285Y-64704819D01*
X121214285Y-64704819D02*
X121452381Y-63704819D01*
X122357142Y-64704819D02*
X121785714Y-64704819D01*
X122071428Y-64704819D02*
X122071428Y-63704819D01*
X122071428Y-63704819D02*
X121976190Y-63847676D01*
X121976190Y-63847676D02*
X121880952Y-63942914D01*
X121880952Y-63942914D02*
X121785714Y-63990533D01*
X122690476Y-63704819D02*
X123357142Y-63704819D01*
X123357142Y-63704819D02*
X122928571Y-64704819D01*
X119690476Y-56657200D02*
X119833333Y-56704819D01*
X119833333Y-56704819D02*
X120071428Y-56704819D01*
X120071428Y-56704819D02*
X120166666Y-56657200D01*
X120166666Y-56657200D02*
X120214285Y-56609580D01*
X120214285Y-56609580D02*
X120261904Y-56514342D01*
X120261904Y-56514342D02*
X120261904Y-56419104D01*
X120261904Y-56419104D02*
X120214285Y-56323866D01*
X120214285Y-56323866D02*
X120166666Y-56276247D01*
X120166666Y-56276247D02*
X120071428Y-56228628D01*
X120071428Y-56228628D02*
X119880952Y-56181009D01*
X119880952Y-56181009D02*
X119785714Y-56133390D01*
X119785714Y-56133390D02*
X119738095Y-56085771D01*
X119738095Y-56085771D02*
X119690476Y-55990533D01*
X119690476Y-55990533D02*
X119690476Y-55895295D01*
X119690476Y-55895295D02*
X119738095Y-55800057D01*
X119738095Y-55800057D02*
X119785714Y-55752438D01*
X119785714Y-55752438D02*
X119880952Y-55704819D01*
X119880952Y-55704819D02*
X120119047Y-55704819D01*
X120119047Y-55704819D02*
X120261904Y-55752438D01*
X120595238Y-55704819D02*
X120833333Y-56704819D01*
X120833333Y-56704819D02*
X121023809Y-55990533D01*
X121023809Y-55990533D02*
X121214285Y-56704819D01*
X121214285Y-56704819D02*
X121452381Y-55704819D01*
X122357142Y-56704819D02*
X121785714Y-56704819D01*
X122071428Y-56704819D02*
X122071428Y-55704819D01*
X122071428Y-55704819D02*
X121976190Y-55847676D01*
X121976190Y-55847676D02*
X121880952Y-55942914D01*
X121880952Y-55942914D02*
X121785714Y-55990533D01*
X123214285Y-55704819D02*
X123023809Y-55704819D01*
X123023809Y-55704819D02*
X122928571Y-55752438D01*
X122928571Y-55752438D02*
X122880952Y-55800057D01*
X122880952Y-55800057D02*
X122785714Y-55942914D01*
X122785714Y-55942914D02*
X122738095Y-56133390D01*
X122738095Y-56133390D02*
X122738095Y-56514342D01*
X122738095Y-56514342D02*
X122785714Y-56609580D01*
X122785714Y-56609580D02*
X122833333Y-56657200D01*
X122833333Y-56657200D02*
X122928571Y-56704819D01*
X122928571Y-56704819D02*
X123119047Y-56704819D01*
X123119047Y-56704819D02*
X123214285Y-56657200D01*
X123214285Y-56657200D02*
X123261904Y-56609580D01*
X123261904Y-56609580D02*
X123309523Y-56514342D01*
X123309523Y-56514342D02*
X123309523Y-56276247D01*
X123309523Y-56276247D02*
X123261904Y-56181009D01*
X123261904Y-56181009D02*
X123214285Y-56133390D01*
X123214285Y-56133390D02*
X123119047Y-56085771D01*
X123119047Y-56085771D02*
X122928571Y-56085771D01*
X122928571Y-56085771D02*
X122833333Y-56133390D01*
X122833333Y-56133390D02*
X122785714Y-56181009D01*
X122785714Y-56181009D02*
X122738095Y-56276247D01*
X119690476Y-48657200D02*
X119833333Y-48704819D01*
X119833333Y-48704819D02*
X120071428Y-48704819D01*
X120071428Y-48704819D02*
X120166666Y-48657200D01*
X120166666Y-48657200D02*
X120214285Y-48609580D01*
X120214285Y-48609580D02*
X120261904Y-48514342D01*
X120261904Y-48514342D02*
X120261904Y-48419104D01*
X120261904Y-48419104D02*
X120214285Y-48323866D01*
X120214285Y-48323866D02*
X120166666Y-48276247D01*
X120166666Y-48276247D02*
X120071428Y-48228628D01*
X120071428Y-48228628D02*
X119880952Y-48181009D01*
X119880952Y-48181009D02*
X119785714Y-48133390D01*
X119785714Y-48133390D02*
X119738095Y-48085771D01*
X119738095Y-48085771D02*
X119690476Y-47990533D01*
X119690476Y-47990533D02*
X119690476Y-47895295D01*
X119690476Y-47895295D02*
X119738095Y-47800057D01*
X119738095Y-47800057D02*
X119785714Y-47752438D01*
X119785714Y-47752438D02*
X119880952Y-47704819D01*
X119880952Y-47704819D02*
X120119047Y-47704819D01*
X120119047Y-47704819D02*
X120261904Y-47752438D01*
X120595238Y-47704819D02*
X120833333Y-48704819D01*
X120833333Y-48704819D02*
X121023809Y-47990533D01*
X121023809Y-47990533D02*
X121214285Y-48704819D01*
X121214285Y-48704819D02*
X121452381Y-47704819D01*
X122357142Y-48704819D02*
X121785714Y-48704819D01*
X122071428Y-48704819D02*
X122071428Y-47704819D01*
X122071428Y-47704819D02*
X121976190Y-47847676D01*
X121976190Y-47847676D02*
X121880952Y-47942914D01*
X121880952Y-47942914D02*
X121785714Y-47990533D01*
X123261904Y-47704819D02*
X122785714Y-47704819D01*
X122785714Y-47704819D02*
X122738095Y-48181009D01*
X122738095Y-48181009D02*
X122785714Y-48133390D01*
X122785714Y-48133390D02*
X122880952Y-48085771D01*
X122880952Y-48085771D02*
X123119047Y-48085771D01*
X123119047Y-48085771D02*
X123214285Y-48133390D01*
X123214285Y-48133390D02*
X123261904Y-48181009D01*
X123261904Y-48181009D02*
X123309523Y-48276247D01*
X123309523Y-48276247D02*
X123309523Y-48514342D01*
X123309523Y-48514342D02*
X123261904Y-48609580D01*
X123261904Y-48609580D02*
X123214285Y-48657200D01*
X123214285Y-48657200D02*
X123119047Y-48704819D01*
X123119047Y-48704819D02*
X122880952Y-48704819D01*
X122880952Y-48704819D02*
X122785714Y-48657200D01*
X122785714Y-48657200D02*
X122738095Y-48609580D01*
X119690476Y-40657200D02*
X119833333Y-40704819D01*
X119833333Y-40704819D02*
X120071428Y-40704819D01*
X120071428Y-40704819D02*
X120166666Y-40657200D01*
X120166666Y-40657200D02*
X120214285Y-40609580D01*
X120214285Y-40609580D02*
X120261904Y-40514342D01*
X120261904Y-40514342D02*
X120261904Y-40419104D01*
X120261904Y-40419104D02*
X120214285Y-40323866D01*
X120214285Y-40323866D02*
X120166666Y-40276247D01*
X120166666Y-40276247D02*
X120071428Y-40228628D01*
X120071428Y-40228628D02*
X119880952Y-40181009D01*
X119880952Y-40181009D02*
X119785714Y-40133390D01*
X119785714Y-40133390D02*
X119738095Y-40085771D01*
X119738095Y-40085771D02*
X119690476Y-39990533D01*
X119690476Y-39990533D02*
X119690476Y-39895295D01*
X119690476Y-39895295D02*
X119738095Y-39800057D01*
X119738095Y-39800057D02*
X119785714Y-39752438D01*
X119785714Y-39752438D02*
X119880952Y-39704819D01*
X119880952Y-39704819D02*
X120119047Y-39704819D01*
X120119047Y-39704819D02*
X120261904Y-39752438D01*
X120595238Y-39704819D02*
X120833333Y-40704819D01*
X120833333Y-40704819D02*
X121023809Y-39990533D01*
X121023809Y-39990533D02*
X121214285Y-40704819D01*
X121214285Y-40704819D02*
X121452381Y-39704819D01*
X122357142Y-40704819D02*
X121785714Y-40704819D01*
X122071428Y-40704819D02*
X122071428Y-39704819D01*
X122071428Y-39704819D02*
X121976190Y-39847676D01*
X121976190Y-39847676D02*
X121880952Y-39942914D01*
X121880952Y-39942914D02*
X121785714Y-39990533D01*
X123214285Y-40038152D02*
X123214285Y-40704819D01*
X122976190Y-39657200D02*
X122738095Y-40371485D01*
X122738095Y-40371485D02*
X123357142Y-40371485D01*
X109440476Y-64657200D02*
X109583333Y-64704819D01*
X109583333Y-64704819D02*
X109821428Y-64704819D01*
X109821428Y-64704819D02*
X109916666Y-64657200D01*
X109916666Y-64657200D02*
X109964285Y-64609580D01*
X109964285Y-64609580D02*
X110011904Y-64514342D01*
X110011904Y-64514342D02*
X110011904Y-64419104D01*
X110011904Y-64419104D02*
X109964285Y-64323866D01*
X109964285Y-64323866D02*
X109916666Y-64276247D01*
X109916666Y-64276247D02*
X109821428Y-64228628D01*
X109821428Y-64228628D02*
X109630952Y-64181009D01*
X109630952Y-64181009D02*
X109535714Y-64133390D01*
X109535714Y-64133390D02*
X109488095Y-64085771D01*
X109488095Y-64085771D02*
X109440476Y-63990533D01*
X109440476Y-63990533D02*
X109440476Y-63895295D01*
X109440476Y-63895295D02*
X109488095Y-63800057D01*
X109488095Y-63800057D02*
X109535714Y-63752438D01*
X109535714Y-63752438D02*
X109630952Y-63704819D01*
X109630952Y-63704819D02*
X109869047Y-63704819D01*
X109869047Y-63704819D02*
X110011904Y-63752438D01*
X110345238Y-63704819D02*
X110583333Y-64704819D01*
X110583333Y-64704819D02*
X110773809Y-63990533D01*
X110773809Y-63990533D02*
X110964285Y-64704819D01*
X110964285Y-64704819D02*
X111202381Y-63704819D01*
X112107142Y-64704819D02*
X111535714Y-64704819D01*
X111821428Y-64704819D02*
X111821428Y-63704819D01*
X111821428Y-63704819D02*
X111726190Y-63847676D01*
X111726190Y-63847676D02*
X111630952Y-63942914D01*
X111630952Y-63942914D02*
X111535714Y-63990533D01*
X112440476Y-63704819D02*
X113059523Y-63704819D01*
X113059523Y-63704819D02*
X112726190Y-64085771D01*
X112726190Y-64085771D02*
X112869047Y-64085771D01*
X112869047Y-64085771D02*
X112964285Y-64133390D01*
X112964285Y-64133390D02*
X113011904Y-64181009D01*
X113011904Y-64181009D02*
X113059523Y-64276247D01*
X113059523Y-64276247D02*
X113059523Y-64514342D01*
X113059523Y-64514342D02*
X113011904Y-64609580D01*
X113011904Y-64609580D02*
X112964285Y-64657200D01*
X112964285Y-64657200D02*
X112869047Y-64704819D01*
X112869047Y-64704819D02*
X112583333Y-64704819D01*
X112583333Y-64704819D02*
X112488095Y-64657200D01*
X112488095Y-64657200D02*
X112440476Y-64609580D01*
X109440476Y-56657200D02*
X109583333Y-56704819D01*
X109583333Y-56704819D02*
X109821428Y-56704819D01*
X109821428Y-56704819D02*
X109916666Y-56657200D01*
X109916666Y-56657200D02*
X109964285Y-56609580D01*
X109964285Y-56609580D02*
X110011904Y-56514342D01*
X110011904Y-56514342D02*
X110011904Y-56419104D01*
X110011904Y-56419104D02*
X109964285Y-56323866D01*
X109964285Y-56323866D02*
X109916666Y-56276247D01*
X109916666Y-56276247D02*
X109821428Y-56228628D01*
X109821428Y-56228628D02*
X109630952Y-56181009D01*
X109630952Y-56181009D02*
X109535714Y-56133390D01*
X109535714Y-56133390D02*
X109488095Y-56085771D01*
X109488095Y-56085771D02*
X109440476Y-55990533D01*
X109440476Y-55990533D02*
X109440476Y-55895295D01*
X109440476Y-55895295D02*
X109488095Y-55800057D01*
X109488095Y-55800057D02*
X109535714Y-55752438D01*
X109535714Y-55752438D02*
X109630952Y-55704819D01*
X109630952Y-55704819D02*
X109869047Y-55704819D01*
X109869047Y-55704819D02*
X110011904Y-55752438D01*
X110345238Y-55704819D02*
X110583333Y-56704819D01*
X110583333Y-56704819D02*
X110773809Y-55990533D01*
X110773809Y-55990533D02*
X110964285Y-56704819D01*
X110964285Y-56704819D02*
X111202381Y-55704819D01*
X112107142Y-56704819D02*
X111535714Y-56704819D01*
X111821428Y-56704819D02*
X111821428Y-55704819D01*
X111821428Y-55704819D02*
X111726190Y-55847676D01*
X111726190Y-55847676D02*
X111630952Y-55942914D01*
X111630952Y-55942914D02*
X111535714Y-55990533D01*
X112488095Y-55800057D02*
X112535714Y-55752438D01*
X112535714Y-55752438D02*
X112630952Y-55704819D01*
X112630952Y-55704819D02*
X112869047Y-55704819D01*
X112869047Y-55704819D02*
X112964285Y-55752438D01*
X112964285Y-55752438D02*
X113011904Y-55800057D01*
X113011904Y-55800057D02*
X113059523Y-55895295D01*
X113059523Y-55895295D02*
X113059523Y-55990533D01*
X113059523Y-55990533D02*
X113011904Y-56133390D01*
X113011904Y-56133390D02*
X112440476Y-56704819D01*
X112440476Y-56704819D02*
X113059523Y-56704819D01*
X109440476Y-48657200D02*
X109583333Y-48704819D01*
X109583333Y-48704819D02*
X109821428Y-48704819D01*
X109821428Y-48704819D02*
X109916666Y-48657200D01*
X109916666Y-48657200D02*
X109964285Y-48609580D01*
X109964285Y-48609580D02*
X110011904Y-48514342D01*
X110011904Y-48514342D02*
X110011904Y-48419104D01*
X110011904Y-48419104D02*
X109964285Y-48323866D01*
X109964285Y-48323866D02*
X109916666Y-48276247D01*
X109916666Y-48276247D02*
X109821428Y-48228628D01*
X109821428Y-48228628D02*
X109630952Y-48181009D01*
X109630952Y-48181009D02*
X109535714Y-48133390D01*
X109535714Y-48133390D02*
X109488095Y-48085771D01*
X109488095Y-48085771D02*
X109440476Y-47990533D01*
X109440476Y-47990533D02*
X109440476Y-47895295D01*
X109440476Y-47895295D02*
X109488095Y-47800057D01*
X109488095Y-47800057D02*
X109535714Y-47752438D01*
X109535714Y-47752438D02*
X109630952Y-47704819D01*
X109630952Y-47704819D02*
X109869047Y-47704819D01*
X109869047Y-47704819D02*
X110011904Y-47752438D01*
X110345238Y-47704819D02*
X110583333Y-48704819D01*
X110583333Y-48704819D02*
X110773809Y-47990533D01*
X110773809Y-47990533D02*
X110964285Y-48704819D01*
X110964285Y-48704819D02*
X111202381Y-47704819D01*
X112107142Y-48704819D02*
X111535714Y-48704819D01*
X111821428Y-48704819D02*
X111821428Y-47704819D01*
X111821428Y-47704819D02*
X111726190Y-47847676D01*
X111726190Y-47847676D02*
X111630952Y-47942914D01*
X111630952Y-47942914D02*
X111535714Y-47990533D01*
X113059523Y-48704819D02*
X112488095Y-48704819D01*
X112773809Y-48704819D02*
X112773809Y-47704819D01*
X112773809Y-47704819D02*
X112678571Y-47847676D01*
X112678571Y-47847676D02*
X112583333Y-47942914D01*
X112583333Y-47942914D02*
X112488095Y-47990533D01*
X109440476Y-40657200D02*
X109583333Y-40704819D01*
X109583333Y-40704819D02*
X109821428Y-40704819D01*
X109821428Y-40704819D02*
X109916666Y-40657200D01*
X109916666Y-40657200D02*
X109964285Y-40609580D01*
X109964285Y-40609580D02*
X110011904Y-40514342D01*
X110011904Y-40514342D02*
X110011904Y-40419104D01*
X110011904Y-40419104D02*
X109964285Y-40323866D01*
X109964285Y-40323866D02*
X109916666Y-40276247D01*
X109916666Y-40276247D02*
X109821428Y-40228628D01*
X109821428Y-40228628D02*
X109630952Y-40181009D01*
X109630952Y-40181009D02*
X109535714Y-40133390D01*
X109535714Y-40133390D02*
X109488095Y-40085771D01*
X109488095Y-40085771D02*
X109440476Y-39990533D01*
X109440476Y-39990533D02*
X109440476Y-39895295D01*
X109440476Y-39895295D02*
X109488095Y-39800057D01*
X109488095Y-39800057D02*
X109535714Y-39752438D01*
X109535714Y-39752438D02*
X109630952Y-39704819D01*
X109630952Y-39704819D02*
X109869047Y-39704819D01*
X109869047Y-39704819D02*
X110011904Y-39752438D01*
X110345238Y-39704819D02*
X110583333Y-40704819D01*
X110583333Y-40704819D02*
X110773809Y-39990533D01*
X110773809Y-39990533D02*
X110964285Y-40704819D01*
X110964285Y-40704819D02*
X111202381Y-39704819D01*
X112107142Y-40704819D02*
X111535714Y-40704819D01*
X111821428Y-40704819D02*
X111821428Y-39704819D01*
X111821428Y-39704819D02*
X111726190Y-39847676D01*
X111726190Y-39847676D02*
X111630952Y-39942914D01*
X111630952Y-39942914D02*
X111535714Y-39990533D01*
X112726190Y-39704819D02*
X112821428Y-39704819D01*
X112821428Y-39704819D02*
X112916666Y-39752438D01*
X112916666Y-39752438D02*
X112964285Y-39800057D01*
X112964285Y-39800057D02*
X113011904Y-39895295D01*
X113011904Y-39895295D02*
X113059523Y-40085771D01*
X113059523Y-40085771D02*
X113059523Y-40323866D01*
X113059523Y-40323866D02*
X113011904Y-40514342D01*
X113011904Y-40514342D02*
X112964285Y-40609580D01*
X112964285Y-40609580D02*
X112916666Y-40657200D01*
X112916666Y-40657200D02*
X112821428Y-40704819D01*
X112821428Y-40704819D02*
X112726190Y-40704819D01*
X112726190Y-40704819D02*
X112630952Y-40657200D01*
X112630952Y-40657200D02*
X112583333Y-40609580D01*
X112583333Y-40609580D02*
X112535714Y-40514342D01*
X112535714Y-40514342D02*
X112488095Y-40323866D01*
X112488095Y-40323866D02*
X112488095Y-40085771D01*
X112488095Y-40085771D02*
X112535714Y-39895295D01*
X112535714Y-39895295D02*
X112583333Y-39800057D01*
X112583333Y-39800057D02*
X112630952Y-39752438D01*
X112630952Y-39752438D02*
X112726190Y-39704819D01*
X99166667Y-64657200D02*
X99309524Y-64704819D01*
X99309524Y-64704819D02*
X99547619Y-64704819D01*
X99547619Y-64704819D02*
X99642857Y-64657200D01*
X99642857Y-64657200D02*
X99690476Y-64609580D01*
X99690476Y-64609580D02*
X99738095Y-64514342D01*
X99738095Y-64514342D02*
X99738095Y-64419104D01*
X99738095Y-64419104D02*
X99690476Y-64323866D01*
X99690476Y-64323866D02*
X99642857Y-64276247D01*
X99642857Y-64276247D02*
X99547619Y-64228628D01*
X99547619Y-64228628D02*
X99357143Y-64181009D01*
X99357143Y-64181009D02*
X99261905Y-64133390D01*
X99261905Y-64133390D02*
X99214286Y-64085771D01*
X99214286Y-64085771D02*
X99166667Y-63990533D01*
X99166667Y-63990533D02*
X99166667Y-63895295D01*
X99166667Y-63895295D02*
X99214286Y-63800057D01*
X99214286Y-63800057D02*
X99261905Y-63752438D01*
X99261905Y-63752438D02*
X99357143Y-63704819D01*
X99357143Y-63704819D02*
X99595238Y-63704819D01*
X99595238Y-63704819D02*
X99738095Y-63752438D01*
X100071429Y-63704819D02*
X100309524Y-64704819D01*
X100309524Y-64704819D02*
X100500000Y-63990533D01*
X100500000Y-63990533D02*
X100690476Y-64704819D01*
X100690476Y-64704819D02*
X100928572Y-63704819D01*
X101357143Y-64704819D02*
X101547619Y-64704819D01*
X101547619Y-64704819D02*
X101642857Y-64657200D01*
X101642857Y-64657200D02*
X101690476Y-64609580D01*
X101690476Y-64609580D02*
X101785714Y-64466723D01*
X101785714Y-64466723D02*
X101833333Y-64276247D01*
X101833333Y-64276247D02*
X101833333Y-63895295D01*
X101833333Y-63895295D02*
X101785714Y-63800057D01*
X101785714Y-63800057D02*
X101738095Y-63752438D01*
X101738095Y-63752438D02*
X101642857Y-63704819D01*
X101642857Y-63704819D02*
X101452381Y-63704819D01*
X101452381Y-63704819D02*
X101357143Y-63752438D01*
X101357143Y-63752438D02*
X101309524Y-63800057D01*
X101309524Y-63800057D02*
X101261905Y-63895295D01*
X101261905Y-63895295D02*
X101261905Y-64133390D01*
X101261905Y-64133390D02*
X101309524Y-64228628D01*
X101309524Y-64228628D02*
X101357143Y-64276247D01*
X101357143Y-64276247D02*
X101452381Y-64323866D01*
X101452381Y-64323866D02*
X101642857Y-64323866D01*
X101642857Y-64323866D02*
X101738095Y-64276247D01*
X101738095Y-64276247D02*
X101785714Y-64228628D01*
X101785714Y-64228628D02*
X101833333Y-64133390D01*
X99166667Y-56657200D02*
X99309524Y-56704819D01*
X99309524Y-56704819D02*
X99547619Y-56704819D01*
X99547619Y-56704819D02*
X99642857Y-56657200D01*
X99642857Y-56657200D02*
X99690476Y-56609580D01*
X99690476Y-56609580D02*
X99738095Y-56514342D01*
X99738095Y-56514342D02*
X99738095Y-56419104D01*
X99738095Y-56419104D02*
X99690476Y-56323866D01*
X99690476Y-56323866D02*
X99642857Y-56276247D01*
X99642857Y-56276247D02*
X99547619Y-56228628D01*
X99547619Y-56228628D02*
X99357143Y-56181009D01*
X99357143Y-56181009D02*
X99261905Y-56133390D01*
X99261905Y-56133390D02*
X99214286Y-56085771D01*
X99214286Y-56085771D02*
X99166667Y-55990533D01*
X99166667Y-55990533D02*
X99166667Y-55895295D01*
X99166667Y-55895295D02*
X99214286Y-55800057D01*
X99214286Y-55800057D02*
X99261905Y-55752438D01*
X99261905Y-55752438D02*
X99357143Y-55704819D01*
X99357143Y-55704819D02*
X99595238Y-55704819D01*
X99595238Y-55704819D02*
X99738095Y-55752438D01*
X100071429Y-55704819D02*
X100309524Y-56704819D01*
X100309524Y-56704819D02*
X100500000Y-55990533D01*
X100500000Y-55990533D02*
X100690476Y-56704819D01*
X100690476Y-56704819D02*
X100928572Y-55704819D01*
X101452381Y-56133390D02*
X101357143Y-56085771D01*
X101357143Y-56085771D02*
X101309524Y-56038152D01*
X101309524Y-56038152D02*
X101261905Y-55942914D01*
X101261905Y-55942914D02*
X101261905Y-55895295D01*
X101261905Y-55895295D02*
X101309524Y-55800057D01*
X101309524Y-55800057D02*
X101357143Y-55752438D01*
X101357143Y-55752438D02*
X101452381Y-55704819D01*
X101452381Y-55704819D02*
X101642857Y-55704819D01*
X101642857Y-55704819D02*
X101738095Y-55752438D01*
X101738095Y-55752438D02*
X101785714Y-55800057D01*
X101785714Y-55800057D02*
X101833333Y-55895295D01*
X101833333Y-55895295D02*
X101833333Y-55942914D01*
X101833333Y-55942914D02*
X101785714Y-56038152D01*
X101785714Y-56038152D02*
X101738095Y-56085771D01*
X101738095Y-56085771D02*
X101642857Y-56133390D01*
X101642857Y-56133390D02*
X101452381Y-56133390D01*
X101452381Y-56133390D02*
X101357143Y-56181009D01*
X101357143Y-56181009D02*
X101309524Y-56228628D01*
X101309524Y-56228628D02*
X101261905Y-56323866D01*
X101261905Y-56323866D02*
X101261905Y-56514342D01*
X101261905Y-56514342D02*
X101309524Y-56609580D01*
X101309524Y-56609580D02*
X101357143Y-56657200D01*
X101357143Y-56657200D02*
X101452381Y-56704819D01*
X101452381Y-56704819D02*
X101642857Y-56704819D01*
X101642857Y-56704819D02*
X101738095Y-56657200D01*
X101738095Y-56657200D02*
X101785714Y-56609580D01*
X101785714Y-56609580D02*
X101833333Y-56514342D01*
X101833333Y-56514342D02*
X101833333Y-56323866D01*
X101833333Y-56323866D02*
X101785714Y-56228628D01*
X101785714Y-56228628D02*
X101738095Y-56181009D01*
X101738095Y-56181009D02*
X101642857Y-56133390D01*
X99166667Y-48657200D02*
X99309524Y-48704819D01*
X99309524Y-48704819D02*
X99547619Y-48704819D01*
X99547619Y-48704819D02*
X99642857Y-48657200D01*
X99642857Y-48657200D02*
X99690476Y-48609580D01*
X99690476Y-48609580D02*
X99738095Y-48514342D01*
X99738095Y-48514342D02*
X99738095Y-48419104D01*
X99738095Y-48419104D02*
X99690476Y-48323866D01*
X99690476Y-48323866D02*
X99642857Y-48276247D01*
X99642857Y-48276247D02*
X99547619Y-48228628D01*
X99547619Y-48228628D02*
X99357143Y-48181009D01*
X99357143Y-48181009D02*
X99261905Y-48133390D01*
X99261905Y-48133390D02*
X99214286Y-48085771D01*
X99214286Y-48085771D02*
X99166667Y-47990533D01*
X99166667Y-47990533D02*
X99166667Y-47895295D01*
X99166667Y-47895295D02*
X99214286Y-47800057D01*
X99214286Y-47800057D02*
X99261905Y-47752438D01*
X99261905Y-47752438D02*
X99357143Y-47704819D01*
X99357143Y-47704819D02*
X99595238Y-47704819D01*
X99595238Y-47704819D02*
X99738095Y-47752438D01*
X100071429Y-47704819D02*
X100309524Y-48704819D01*
X100309524Y-48704819D02*
X100500000Y-47990533D01*
X100500000Y-47990533D02*
X100690476Y-48704819D01*
X100690476Y-48704819D02*
X100928572Y-47704819D01*
X101214286Y-47704819D02*
X101880952Y-47704819D01*
X101880952Y-47704819D02*
X101452381Y-48704819D01*
X99166667Y-40657200D02*
X99309524Y-40704819D01*
X99309524Y-40704819D02*
X99547619Y-40704819D01*
X99547619Y-40704819D02*
X99642857Y-40657200D01*
X99642857Y-40657200D02*
X99690476Y-40609580D01*
X99690476Y-40609580D02*
X99738095Y-40514342D01*
X99738095Y-40514342D02*
X99738095Y-40419104D01*
X99738095Y-40419104D02*
X99690476Y-40323866D01*
X99690476Y-40323866D02*
X99642857Y-40276247D01*
X99642857Y-40276247D02*
X99547619Y-40228628D01*
X99547619Y-40228628D02*
X99357143Y-40181009D01*
X99357143Y-40181009D02*
X99261905Y-40133390D01*
X99261905Y-40133390D02*
X99214286Y-40085771D01*
X99214286Y-40085771D02*
X99166667Y-39990533D01*
X99166667Y-39990533D02*
X99166667Y-39895295D01*
X99166667Y-39895295D02*
X99214286Y-39800057D01*
X99214286Y-39800057D02*
X99261905Y-39752438D01*
X99261905Y-39752438D02*
X99357143Y-39704819D01*
X99357143Y-39704819D02*
X99595238Y-39704819D01*
X99595238Y-39704819D02*
X99738095Y-39752438D01*
X100071429Y-39704819D02*
X100309524Y-40704819D01*
X100309524Y-40704819D02*
X100500000Y-39990533D01*
X100500000Y-39990533D02*
X100690476Y-40704819D01*
X100690476Y-40704819D02*
X100928572Y-39704819D01*
X101738095Y-39704819D02*
X101547619Y-39704819D01*
X101547619Y-39704819D02*
X101452381Y-39752438D01*
X101452381Y-39752438D02*
X101404762Y-39800057D01*
X101404762Y-39800057D02*
X101309524Y-39942914D01*
X101309524Y-39942914D02*
X101261905Y-40133390D01*
X101261905Y-40133390D02*
X101261905Y-40514342D01*
X101261905Y-40514342D02*
X101309524Y-40609580D01*
X101309524Y-40609580D02*
X101357143Y-40657200D01*
X101357143Y-40657200D02*
X101452381Y-40704819D01*
X101452381Y-40704819D02*
X101642857Y-40704819D01*
X101642857Y-40704819D02*
X101738095Y-40657200D01*
X101738095Y-40657200D02*
X101785714Y-40609580D01*
X101785714Y-40609580D02*
X101833333Y-40514342D01*
X101833333Y-40514342D02*
X101833333Y-40276247D01*
X101833333Y-40276247D02*
X101785714Y-40181009D01*
X101785714Y-40181009D02*
X101738095Y-40133390D01*
X101738095Y-40133390D02*
X101642857Y-40085771D01*
X101642857Y-40085771D02*
X101452381Y-40085771D01*
X101452381Y-40085771D02*
X101357143Y-40133390D01*
X101357143Y-40133390D02*
X101309524Y-40181009D01*
X101309524Y-40181009D02*
X101261905Y-40276247D01*
X85296667Y-64657200D02*
X85439524Y-64704819D01*
X85439524Y-64704819D02*
X85677619Y-64704819D01*
X85677619Y-64704819D02*
X85772857Y-64657200D01*
X85772857Y-64657200D02*
X85820476Y-64609580D01*
X85820476Y-64609580D02*
X85868095Y-64514342D01*
X85868095Y-64514342D02*
X85868095Y-64419104D01*
X85868095Y-64419104D02*
X85820476Y-64323866D01*
X85820476Y-64323866D02*
X85772857Y-64276247D01*
X85772857Y-64276247D02*
X85677619Y-64228628D01*
X85677619Y-64228628D02*
X85487143Y-64181009D01*
X85487143Y-64181009D02*
X85391905Y-64133390D01*
X85391905Y-64133390D02*
X85344286Y-64085771D01*
X85344286Y-64085771D02*
X85296667Y-63990533D01*
X85296667Y-63990533D02*
X85296667Y-63895295D01*
X85296667Y-63895295D02*
X85344286Y-63800057D01*
X85344286Y-63800057D02*
X85391905Y-63752438D01*
X85391905Y-63752438D02*
X85487143Y-63704819D01*
X85487143Y-63704819D02*
X85725238Y-63704819D01*
X85725238Y-63704819D02*
X85868095Y-63752438D01*
X86201429Y-63704819D02*
X86439524Y-64704819D01*
X86439524Y-64704819D02*
X86630000Y-63990533D01*
X86630000Y-63990533D02*
X86820476Y-64704819D01*
X86820476Y-64704819D02*
X87058572Y-63704819D01*
X87915714Y-63704819D02*
X87439524Y-63704819D01*
X87439524Y-63704819D02*
X87391905Y-64181009D01*
X87391905Y-64181009D02*
X87439524Y-64133390D01*
X87439524Y-64133390D02*
X87534762Y-64085771D01*
X87534762Y-64085771D02*
X87772857Y-64085771D01*
X87772857Y-64085771D02*
X87868095Y-64133390D01*
X87868095Y-64133390D02*
X87915714Y-64181009D01*
X87915714Y-64181009D02*
X87963333Y-64276247D01*
X87963333Y-64276247D02*
X87963333Y-64514342D01*
X87963333Y-64514342D02*
X87915714Y-64609580D01*
X87915714Y-64609580D02*
X87868095Y-64657200D01*
X87868095Y-64657200D02*
X87772857Y-64704819D01*
X87772857Y-64704819D02*
X87534762Y-64704819D01*
X87534762Y-64704819D02*
X87439524Y-64657200D01*
X87439524Y-64657200D02*
X87391905Y-64609580D01*
X85166667Y-56657200D02*
X85309524Y-56704819D01*
X85309524Y-56704819D02*
X85547619Y-56704819D01*
X85547619Y-56704819D02*
X85642857Y-56657200D01*
X85642857Y-56657200D02*
X85690476Y-56609580D01*
X85690476Y-56609580D02*
X85738095Y-56514342D01*
X85738095Y-56514342D02*
X85738095Y-56419104D01*
X85738095Y-56419104D02*
X85690476Y-56323866D01*
X85690476Y-56323866D02*
X85642857Y-56276247D01*
X85642857Y-56276247D02*
X85547619Y-56228628D01*
X85547619Y-56228628D02*
X85357143Y-56181009D01*
X85357143Y-56181009D02*
X85261905Y-56133390D01*
X85261905Y-56133390D02*
X85214286Y-56085771D01*
X85214286Y-56085771D02*
X85166667Y-55990533D01*
X85166667Y-55990533D02*
X85166667Y-55895295D01*
X85166667Y-55895295D02*
X85214286Y-55800057D01*
X85214286Y-55800057D02*
X85261905Y-55752438D01*
X85261905Y-55752438D02*
X85357143Y-55704819D01*
X85357143Y-55704819D02*
X85595238Y-55704819D01*
X85595238Y-55704819D02*
X85738095Y-55752438D01*
X86071429Y-55704819D02*
X86309524Y-56704819D01*
X86309524Y-56704819D02*
X86500000Y-55990533D01*
X86500000Y-55990533D02*
X86690476Y-56704819D01*
X86690476Y-56704819D02*
X86928572Y-55704819D01*
X87738095Y-56038152D02*
X87738095Y-56704819D01*
X87500000Y-55657200D02*
X87261905Y-56371485D01*
X87261905Y-56371485D02*
X87880952Y-56371485D01*
X85166667Y-48657200D02*
X85309524Y-48704819D01*
X85309524Y-48704819D02*
X85547619Y-48704819D01*
X85547619Y-48704819D02*
X85642857Y-48657200D01*
X85642857Y-48657200D02*
X85690476Y-48609580D01*
X85690476Y-48609580D02*
X85738095Y-48514342D01*
X85738095Y-48514342D02*
X85738095Y-48419104D01*
X85738095Y-48419104D02*
X85690476Y-48323866D01*
X85690476Y-48323866D02*
X85642857Y-48276247D01*
X85642857Y-48276247D02*
X85547619Y-48228628D01*
X85547619Y-48228628D02*
X85357143Y-48181009D01*
X85357143Y-48181009D02*
X85261905Y-48133390D01*
X85261905Y-48133390D02*
X85214286Y-48085771D01*
X85214286Y-48085771D02*
X85166667Y-47990533D01*
X85166667Y-47990533D02*
X85166667Y-47895295D01*
X85166667Y-47895295D02*
X85214286Y-47800057D01*
X85214286Y-47800057D02*
X85261905Y-47752438D01*
X85261905Y-47752438D02*
X85357143Y-47704819D01*
X85357143Y-47704819D02*
X85595238Y-47704819D01*
X85595238Y-47704819D02*
X85738095Y-47752438D01*
X86071429Y-47704819D02*
X86309524Y-48704819D01*
X86309524Y-48704819D02*
X86500000Y-47990533D01*
X86500000Y-47990533D02*
X86690476Y-48704819D01*
X86690476Y-48704819D02*
X86928572Y-47704819D01*
X87214286Y-47704819D02*
X87833333Y-47704819D01*
X87833333Y-47704819D02*
X87500000Y-48085771D01*
X87500000Y-48085771D02*
X87642857Y-48085771D01*
X87642857Y-48085771D02*
X87738095Y-48133390D01*
X87738095Y-48133390D02*
X87785714Y-48181009D01*
X87785714Y-48181009D02*
X87833333Y-48276247D01*
X87833333Y-48276247D02*
X87833333Y-48514342D01*
X87833333Y-48514342D02*
X87785714Y-48609580D01*
X87785714Y-48609580D02*
X87738095Y-48657200D01*
X87738095Y-48657200D02*
X87642857Y-48704819D01*
X87642857Y-48704819D02*
X87357143Y-48704819D01*
X87357143Y-48704819D02*
X87261905Y-48657200D01*
X87261905Y-48657200D02*
X87214286Y-48609580D01*
X85166667Y-40657200D02*
X85309524Y-40704819D01*
X85309524Y-40704819D02*
X85547619Y-40704819D01*
X85547619Y-40704819D02*
X85642857Y-40657200D01*
X85642857Y-40657200D02*
X85690476Y-40609580D01*
X85690476Y-40609580D02*
X85738095Y-40514342D01*
X85738095Y-40514342D02*
X85738095Y-40419104D01*
X85738095Y-40419104D02*
X85690476Y-40323866D01*
X85690476Y-40323866D02*
X85642857Y-40276247D01*
X85642857Y-40276247D02*
X85547619Y-40228628D01*
X85547619Y-40228628D02*
X85357143Y-40181009D01*
X85357143Y-40181009D02*
X85261905Y-40133390D01*
X85261905Y-40133390D02*
X85214286Y-40085771D01*
X85214286Y-40085771D02*
X85166667Y-39990533D01*
X85166667Y-39990533D02*
X85166667Y-39895295D01*
X85166667Y-39895295D02*
X85214286Y-39800057D01*
X85214286Y-39800057D02*
X85261905Y-39752438D01*
X85261905Y-39752438D02*
X85357143Y-39704819D01*
X85357143Y-39704819D02*
X85595238Y-39704819D01*
X85595238Y-39704819D02*
X85738095Y-39752438D01*
X86071429Y-39704819D02*
X86309524Y-40704819D01*
X86309524Y-40704819D02*
X86500000Y-39990533D01*
X86500000Y-39990533D02*
X86690476Y-40704819D01*
X86690476Y-40704819D02*
X86928572Y-39704819D01*
X87261905Y-39800057D02*
X87309524Y-39752438D01*
X87309524Y-39752438D02*
X87404762Y-39704819D01*
X87404762Y-39704819D02*
X87642857Y-39704819D01*
X87642857Y-39704819D02*
X87738095Y-39752438D01*
X87738095Y-39752438D02*
X87785714Y-39800057D01*
X87785714Y-39800057D02*
X87833333Y-39895295D01*
X87833333Y-39895295D02*
X87833333Y-39990533D01*
X87833333Y-39990533D02*
X87785714Y-40133390D01*
X87785714Y-40133390D02*
X87214286Y-40704819D01*
X87214286Y-40704819D02*
X87833333Y-40704819D01*
X98126667Y-23387200D02*
X98269524Y-23434819D01*
X98269524Y-23434819D02*
X98507619Y-23434819D01*
X98507619Y-23434819D02*
X98602857Y-23387200D01*
X98602857Y-23387200D02*
X98650476Y-23339580D01*
X98650476Y-23339580D02*
X98698095Y-23244342D01*
X98698095Y-23244342D02*
X98698095Y-23149104D01*
X98698095Y-23149104D02*
X98650476Y-23053866D01*
X98650476Y-23053866D02*
X98602857Y-23006247D01*
X98602857Y-23006247D02*
X98507619Y-22958628D01*
X98507619Y-22958628D02*
X98317143Y-22911009D01*
X98317143Y-22911009D02*
X98221905Y-22863390D01*
X98221905Y-22863390D02*
X98174286Y-22815771D01*
X98174286Y-22815771D02*
X98126667Y-22720533D01*
X98126667Y-22720533D02*
X98126667Y-22625295D01*
X98126667Y-22625295D02*
X98174286Y-22530057D01*
X98174286Y-22530057D02*
X98221905Y-22482438D01*
X98221905Y-22482438D02*
X98317143Y-22434819D01*
X98317143Y-22434819D02*
X98555238Y-22434819D01*
X98555238Y-22434819D02*
X98698095Y-22482438D01*
X99031429Y-22434819D02*
X99269524Y-23434819D01*
X99269524Y-23434819D02*
X99460000Y-22720533D01*
X99460000Y-22720533D02*
X99650476Y-23434819D01*
X99650476Y-23434819D02*
X99888572Y-22434819D01*
X100793333Y-23434819D02*
X100221905Y-23434819D01*
X100507619Y-23434819D02*
X100507619Y-22434819D01*
X100507619Y-22434819D02*
X100412381Y-22577676D01*
X100412381Y-22577676D02*
X100317143Y-22672914D01*
X100317143Y-22672914D02*
X100221905Y-22720533D01*
X99333333Y-35084819D02*
X99000000Y-34608628D01*
X98761905Y-35084819D02*
X98761905Y-34084819D01*
X98761905Y-34084819D02*
X99142857Y-34084819D01*
X99142857Y-34084819D02*
X99238095Y-34132438D01*
X99238095Y-34132438D02*
X99285714Y-34180057D01*
X99285714Y-34180057D02*
X99333333Y-34275295D01*
X99333333Y-34275295D02*
X99333333Y-34418152D01*
X99333333Y-34418152D02*
X99285714Y-34513390D01*
X99285714Y-34513390D02*
X99238095Y-34561009D01*
X99238095Y-34561009D02*
X99142857Y-34608628D01*
X99142857Y-34608628D02*
X98761905Y-34608628D01*
X99714286Y-34180057D02*
X99761905Y-34132438D01*
X99761905Y-34132438D02*
X99857143Y-34084819D01*
X99857143Y-34084819D02*
X100095238Y-34084819D01*
X100095238Y-34084819D02*
X100190476Y-34132438D01*
X100190476Y-34132438D02*
X100238095Y-34180057D01*
X100238095Y-34180057D02*
X100285714Y-34275295D01*
X100285714Y-34275295D02*
X100285714Y-34370533D01*
X100285714Y-34370533D02*
X100238095Y-34513390D01*
X100238095Y-34513390D02*
X99666667Y-35084819D01*
X99666667Y-35084819D02*
X100285714Y-35084819D01*
X99333333Y-31034819D02*
X99000000Y-30558628D01*
X98761905Y-31034819D02*
X98761905Y-30034819D01*
X98761905Y-30034819D02*
X99142857Y-30034819D01*
X99142857Y-30034819D02*
X99238095Y-30082438D01*
X99238095Y-30082438D02*
X99285714Y-30130057D01*
X99285714Y-30130057D02*
X99333333Y-30225295D01*
X99333333Y-30225295D02*
X99333333Y-30368152D01*
X99333333Y-30368152D02*
X99285714Y-30463390D01*
X99285714Y-30463390D02*
X99238095Y-30511009D01*
X99238095Y-30511009D02*
X99142857Y-30558628D01*
X99142857Y-30558628D02*
X98761905Y-30558628D01*
X100285714Y-31034819D02*
X99714286Y-31034819D01*
X100000000Y-31034819D02*
X100000000Y-30034819D01*
X100000000Y-30034819D02*
X99904762Y-30177676D01*
X99904762Y-30177676D02*
X99809524Y-30272914D01*
X99809524Y-30272914D02*
X99714286Y-30320533D01*
X109475999Y-21419133D02*
X109475999Y-20299133D01*
X109475999Y-20299133D02*
X109742666Y-20299133D01*
X109742666Y-20299133D02*
X109902666Y-20352466D01*
X109902666Y-20352466D02*
X110009333Y-20459133D01*
X110009333Y-20459133D02*
X110062666Y-20565800D01*
X110062666Y-20565800D02*
X110115999Y-20779133D01*
X110115999Y-20779133D02*
X110115999Y-20939133D01*
X110115999Y-20939133D02*
X110062666Y-21152466D01*
X110062666Y-21152466D02*
X110009333Y-21259133D01*
X110009333Y-21259133D02*
X109902666Y-21365800D01*
X109902666Y-21365800D02*
X109742666Y-21419133D01*
X109742666Y-21419133D02*
X109475999Y-21419133D01*
X110542666Y-21365800D02*
X110702666Y-21419133D01*
X110702666Y-21419133D02*
X110969333Y-21419133D01*
X110969333Y-21419133D02*
X111075999Y-21365800D01*
X111075999Y-21365800D02*
X111129333Y-21312466D01*
X111129333Y-21312466D02*
X111182666Y-21205800D01*
X111182666Y-21205800D02*
X111182666Y-21099133D01*
X111182666Y-21099133D02*
X111129333Y-20992466D01*
X111129333Y-20992466D02*
X111075999Y-20939133D01*
X111075999Y-20939133D02*
X110969333Y-20885800D01*
X110969333Y-20885800D02*
X110755999Y-20832466D01*
X110755999Y-20832466D02*
X110649333Y-20779133D01*
X110649333Y-20779133D02*
X110595999Y-20725800D01*
X110595999Y-20725800D02*
X110542666Y-20619133D01*
X110542666Y-20619133D02*
X110542666Y-20512466D01*
X110542666Y-20512466D02*
X110595999Y-20405800D01*
X110595999Y-20405800D02*
X110649333Y-20352466D01*
X110649333Y-20352466D02*
X110755999Y-20299133D01*
X110755999Y-20299133D02*
X111022666Y-20299133D01*
X111022666Y-20299133D02*
X111182666Y-20352466D01*
X111609333Y-20405800D02*
X111662666Y-20352466D01*
X111662666Y-20352466D02*
X111769333Y-20299133D01*
X111769333Y-20299133D02*
X112036000Y-20299133D01*
X112036000Y-20299133D02*
X112142666Y-20352466D01*
X112142666Y-20352466D02*
X112196000Y-20405800D01*
X112196000Y-20405800D02*
X112249333Y-20512466D01*
X112249333Y-20512466D02*
X112249333Y-20619133D01*
X112249333Y-20619133D02*
X112196000Y-20779133D01*
X112196000Y-20779133D02*
X111556000Y-21419133D01*
X111556000Y-21419133D02*
X112249333Y-21419133D01*
X56475999Y-21419133D02*
X56475999Y-20299133D01*
X56475999Y-20299133D02*
X56742666Y-20299133D01*
X56742666Y-20299133D02*
X56902666Y-20352466D01*
X56902666Y-20352466D02*
X57009333Y-20459133D01*
X57009333Y-20459133D02*
X57062666Y-20565800D01*
X57062666Y-20565800D02*
X57115999Y-20779133D01*
X57115999Y-20779133D02*
X57115999Y-20939133D01*
X57115999Y-20939133D02*
X57062666Y-21152466D01*
X57062666Y-21152466D02*
X57009333Y-21259133D01*
X57009333Y-21259133D02*
X56902666Y-21365800D01*
X56902666Y-21365800D02*
X56742666Y-21419133D01*
X56742666Y-21419133D02*
X56475999Y-21419133D01*
X57542666Y-21365800D02*
X57702666Y-21419133D01*
X57702666Y-21419133D02*
X57969333Y-21419133D01*
X57969333Y-21419133D02*
X58075999Y-21365800D01*
X58075999Y-21365800D02*
X58129333Y-21312466D01*
X58129333Y-21312466D02*
X58182666Y-21205800D01*
X58182666Y-21205800D02*
X58182666Y-21099133D01*
X58182666Y-21099133D02*
X58129333Y-20992466D01*
X58129333Y-20992466D02*
X58075999Y-20939133D01*
X58075999Y-20939133D02*
X57969333Y-20885800D01*
X57969333Y-20885800D02*
X57755999Y-20832466D01*
X57755999Y-20832466D02*
X57649333Y-20779133D01*
X57649333Y-20779133D02*
X57595999Y-20725800D01*
X57595999Y-20725800D02*
X57542666Y-20619133D01*
X57542666Y-20619133D02*
X57542666Y-20512466D01*
X57542666Y-20512466D02*
X57595999Y-20405800D01*
X57595999Y-20405800D02*
X57649333Y-20352466D01*
X57649333Y-20352466D02*
X57755999Y-20299133D01*
X57755999Y-20299133D02*
X58022666Y-20299133D01*
X58022666Y-20299133D02*
X58182666Y-20352466D01*
X59249333Y-21419133D02*
X58609333Y-21419133D01*
X58929333Y-21419133D02*
X58929333Y-20299133D01*
X58929333Y-20299133D02*
X58822666Y-20459133D01*
X58822666Y-20459133D02*
X58716000Y-20565800D01*
X58716000Y-20565800D02*
X58609333Y-20619133D01*
X73401414Y-84401148D02*
X73401414Y-83401148D01*
X73401414Y-83401148D02*
X73639509Y-83401148D01*
X73639509Y-83401148D02*
X73782366Y-83448767D01*
X73782366Y-83448767D02*
X73877604Y-83544005D01*
X73877604Y-83544005D02*
X73925223Y-83639243D01*
X73925223Y-83639243D02*
X73972842Y-83829719D01*
X73972842Y-83829719D02*
X73972842Y-83972576D01*
X73972842Y-83972576D02*
X73925223Y-84163052D01*
X73925223Y-84163052D02*
X73877604Y-84258290D01*
X73877604Y-84258290D02*
X73782366Y-84353529D01*
X73782366Y-84353529D02*
X73639509Y-84401148D01*
X73639509Y-84401148D02*
X73401414Y-84401148D01*
X74925223Y-84401148D02*
X74353795Y-84401148D01*
X74639509Y-84401148D02*
X74639509Y-83401148D01*
X74639509Y-83401148D02*
X74544271Y-83544005D01*
X74544271Y-83544005D02*
X74449033Y-83639243D01*
X74449033Y-83639243D02*
X74353795Y-83686862D01*
X75782366Y-83401148D02*
X75591890Y-83401148D01*
X75591890Y-83401148D02*
X75496652Y-83448767D01*
X75496652Y-83448767D02*
X75449033Y-83496386D01*
X75449033Y-83496386D02*
X75353795Y-83639243D01*
X75353795Y-83639243D02*
X75306176Y-83829719D01*
X75306176Y-83829719D02*
X75306176Y-84210671D01*
X75306176Y-84210671D02*
X75353795Y-84305909D01*
X75353795Y-84305909D02*
X75401414Y-84353529D01*
X75401414Y-84353529D02*
X75496652Y-84401148D01*
X75496652Y-84401148D02*
X75687128Y-84401148D01*
X75687128Y-84401148D02*
X75782366Y-84353529D01*
X75782366Y-84353529D02*
X75829985Y-84305909D01*
X75829985Y-84305909D02*
X75877604Y-84210671D01*
X75877604Y-84210671D02*
X75877604Y-83972576D01*
X75877604Y-83972576D02*
X75829985Y-83877338D01*
X75829985Y-83877338D02*
X75782366Y-83829719D01*
X75782366Y-83829719D02*
X75687128Y-83782100D01*
X75687128Y-83782100D02*
X75496652Y-83782100D01*
X75496652Y-83782100D02*
X75401414Y-83829719D01*
X75401414Y-83829719D02*
X75353795Y-83877338D01*
X75353795Y-83877338D02*
X75306176Y-83972576D01*
X73948795Y-87527519D02*
X73948795Y-86527519D01*
X74520223Y-87527519D02*
X74091652Y-86956090D01*
X74520223Y-86527519D02*
X73948795Y-87098947D01*
X73401414Y-80628448D02*
X73401414Y-79628448D01*
X73401414Y-79628448D02*
X73639509Y-79628448D01*
X73639509Y-79628448D02*
X73782366Y-79676067D01*
X73782366Y-79676067D02*
X73877604Y-79771305D01*
X73877604Y-79771305D02*
X73925223Y-79866543D01*
X73925223Y-79866543D02*
X73972842Y-80057019D01*
X73972842Y-80057019D02*
X73972842Y-80199876D01*
X73972842Y-80199876D02*
X73925223Y-80390352D01*
X73925223Y-80390352D02*
X73877604Y-80485590D01*
X73877604Y-80485590D02*
X73782366Y-80580829D01*
X73782366Y-80580829D02*
X73639509Y-80628448D01*
X73639509Y-80628448D02*
X73401414Y-80628448D01*
X74925223Y-80628448D02*
X74353795Y-80628448D01*
X74639509Y-80628448D02*
X74639509Y-79628448D01*
X74639509Y-79628448D02*
X74544271Y-79771305D01*
X74544271Y-79771305D02*
X74449033Y-79866543D01*
X74449033Y-79866543D02*
X74353795Y-79914162D01*
X75829985Y-79628448D02*
X75353795Y-79628448D01*
X75353795Y-79628448D02*
X75306176Y-80104638D01*
X75306176Y-80104638D02*
X75353795Y-80057019D01*
X75353795Y-80057019D02*
X75449033Y-80009400D01*
X75449033Y-80009400D02*
X75687128Y-80009400D01*
X75687128Y-80009400D02*
X75782366Y-80057019D01*
X75782366Y-80057019D02*
X75829985Y-80104638D01*
X75829985Y-80104638D02*
X75877604Y-80199876D01*
X75877604Y-80199876D02*
X75877604Y-80437971D01*
X75877604Y-80437971D02*
X75829985Y-80533209D01*
X75829985Y-80533209D02*
X75782366Y-80580829D01*
X75782366Y-80580829D02*
X75687128Y-80628448D01*
X75687128Y-80628448D02*
X75449033Y-80628448D01*
X75449033Y-80628448D02*
X75353795Y-80580829D01*
X75353795Y-80580829D02*
X75306176Y-80533209D01*
X73948795Y-83754819D02*
X73948795Y-82754819D01*
X74520223Y-83754819D02*
X74091652Y-83183390D01*
X74520223Y-82754819D02*
X73948795Y-83326247D01*
X73401414Y-76855748D02*
X73401414Y-75855748D01*
X73401414Y-75855748D02*
X73639509Y-75855748D01*
X73639509Y-75855748D02*
X73782366Y-75903367D01*
X73782366Y-75903367D02*
X73877604Y-75998605D01*
X73877604Y-75998605D02*
X73925223Y-76093843D01*
X73925223Y-76093843D02*
X73972842Y-76284319D01*
X73972842Y-76284319D02*
X73972842Y-76427176D01*
X73972842Y-76427176D02*
X73925223Y-76617652D01*
X73925223Y-76617652D02*
X73877604Y-76712890D01*
X73877604Y-76712890D02*
X73782366Y-76808129D01*
X73782366Y-76808129D02*
X73639509Y-76855748D01*
X73639509Y-76855748D02*
X73401414Y-76855748D01*
X74925223Y-76855748D02*
X74353795Y-76855748D01*
X74639509Y-76855748D02*
X74639509Y-75855748D01*
X74639509Y-75855748D02*
X74544271Y-75998605D01*
X74544271Y-75998605D02*
X74449033Y-76093843D01*
X74449033Y-76093843D02*
X74353795Y-76141462D01*
X75782366Y-76189081D02*
X75782366Y-76855748D01*
X75544271Y-75808129D02*
X75306176Y-76522414D01*
X75306176Y-76522414D02*
X75925223Y-76522414D01*
X73948795Y-79982119D02*
X73948795Y-78982119D01*
X74520223Y-79982119D02*
X74091652Y-79410690D01*
X74520223Y-78982119D02*
X73948795Y-79553547D01*
X73401414Y-73082948D02*
X73401414Y-72082948D01*
X73401414Y-72082948D02*
X73639509Y-72082948D01*
X73639509Y-72082948D02*
X73782366Y-72130567D01*
X73782366Y-72130567D02*
X73877604Y-72225805D01*
X73877604Y-72225805D02*
X73925223Y-72321043D01*
X73925223Y-72321043D02*
X73972842Y-72511519D01*
X73972842Y-72511519D02*
X73972842Y-72654376D01*
X73972842Y-72654376D02*
X73925223Y-72844852D01*
X73925223Y-72844852D02*
X73877604Y-72940090D01*
X73877604Y-72940090D02*
X73782366Y-73035329D01*
X73782366Y-73035329D02*
X73639509Y-73082948D01*
X73639509Y-73082948D02*
X73401414Y-73082948D01*
X74925223Y-73082948D02*
X74353795Y-73082948D01*
X74639509Y-73082948D02*
X74639509Y-72082948D01*
X74639509Y-72082948D02*
X74544271Y-72225805D01*
X74544271Y-72225805D02*
X74449033Y-72321043D01*
X74449033Y-72321043D02*
X74353795Y-72368662D01*
X75258557Y-72082948D02*
X75877604Y-72082948D01*
X75877604Y-72082948D02*
X75544271Y-72463900D01*
X75544271Y-72463900D02*
X75687128Y-72463900D01*
X75687128Y-72463900D02*
X75782366Y-72511519D01*
X75782366Y-72511519D02*
X75829985Y-72559138D01*
X75829985Y-72559138D02*
X75877604Y-72654376D01*
X75877604Y-72654376D02*
X75877604Y-72892471D01*
X75877604Y-72892471D02*
X75829985Y-72987709D01*
X75829985Y-72987709D02*
X75782366Y-73035329D01*
X75782366Y-73035329D02*
X75687128Y-73082948D01*
X75687128Y-73082948D02*
X75401414Y-73082948D01*
X75401414Y-73082948D02*
X75306176Y-73035329D01*
X75306176Y-73035329D02*
X75258557Y-72987709D01*
X73948795Y-76209319D02*
X73948795Y-75209319D01*
X74520223Y-76209319D02*
X74091652Y-75637890D01*
X74520223Y-75209319D02*
X73948795Y-75780747D01*
X66130014Y-91946648D02*
X66130014Y-90946648D01*
X66130014Y-90946648D02*
X66368109Y-90946648D01*
X66368109Y-90946648D02*
X66510966Y-90994267D01*
X66510966Y-90994267D02*
X66606204Y-91089505D01*
X66606204Y-91089505D02*
X66653823Y-91184743D01*
X66653823Y-91184743D02*
X66701442Y-91375219D01*
X66701442Y-91375219D02*
X66701442Y-91518076D01*
X66701442Y-91518076D02*
X66653823Y-91708552D01*
X66653823Y-91708552D02*
X66606204Y-91803790D01*
X66606204Y-91803790D02*
X66510966Y-91899029D01*
X66510966Y-91899029D02*
X66368109Y-91946648D01*
X66368109Y-91946648D02*
X66130014Y-91946648D01*
X67653823Y-91946648D02*
X67082395Y-91946648D01*
X67368109Y-91946648D02*
X67368109Y-90946648D01*
X67368109Y-90946648D02*
X67272871Y-91089505D01*
X67272871Y-91089505D02*
X67177633Y-91184743D01*
X67177633Y-91184743D02*
X67082395Y-91232362D01*
X68034776Y-91041886D02*
X68082395Y-90994267D01*
X68082395Y-90994267D02*
X68177633Y-90946648D01*
X68177633Y-90946648D02*
X68415728Y-90946648D01*
X68415728Y-90946648D02*
X68510966Y-90994267D01*
X68510966Y-90994267D02*
X68558585Y-91041886D01*
X68558585Y-91041886D02*
X68606204Y-91137124D01*
X68606204Y-91137124D02*
X68606204Y-91232362D01*
X68606204Y-91232362D02*
X68558585Y-91375219D01*
X68558585Y-91375219D02*
X67987157Y-91946648D01*
X67987157Y-91946648D02*
X68606204Y-91946648D01*
X66677395Y-95073019D02*
X66677395Y-94073019D01*
X67248823Y-95073019D02*
X66820252Y-94501590D01*
X67248823Y-94073019D02*
X66677395Y-94644447D01*
X66130014Y-88173948D02*
X66130014Y-87173948D01*
X66130014Y-87173948D02*
X66368109Y-87173948D01*
X66368109Y-87173948D02*
X66510966Y-87221567D01*
X66510966Y-87221567D02*
X66606204Y-87316805D01*
X66606204Y-87316805D02*
X66653823Y-87412043D01*
X66653823Y-87412043D02*
X66701442Y-87602519D01*
X66701442Y-87602519D02*
X66701442Y-87745376D01*
X66701442Y-87745376D02*
X66653823Y-87935852D01*
X66653823Y-87935852D02*
X66606204Y-88031090D01*
X66606204Y-88031090D02*
X66510966Y-88126329D01*
X66510966Y-88126329D02*
X66368109Y-88173948D01*
X66368109Y-88173948D02*
X66130014Y-88173948D01*
X67653823Y-88173948D02*
X67082395Y-88173948D01*
X67368109Y-88173948D02*
X67368109Y-87173948D01*
X67368109Y-87173948D02*
X67272871Y-87316805D01*
X67272871Y-87316805D02*
X67177633Y-87412043D01*
X67177633Y-87412043D02*
X67082395Y-87459662D01*
X68606204Y-88173948D02*
X68034776Y-88173948D01*
X68320490Y-88173948D02*
X68320490Y-87173948D01*
X68320490Y-87173948D02*
X68225252Y-87316805D01*
X68225252Y-87316805D02*
X68130014Y-87412043D01*
X68130014Y-87412043D02*
X68034776Y-87459662D01*
X66677395Y-91300319D02*
X66677395Y-90300319D01*
X67248823Y-91300319D02*
X66820252Y-90728890D01*
X67248823Y-90300319D02*
X66677395Y-90871747D01*
X66130014Y-84401148D02*
X66130014Y-83401148D01*
X66130014Y-83401148D02*
X66368109Y-83401148D01*
X66368109Y-83401148D02*
X66510966Y-83448767D01*
X66510966Y-83448767D02*
X66606204Y-83544005D01*
X66606204Y-83544005D02*
X66653823Y-83639243D01*
X66653823Y-83639243D02*
X66701442Y-83829719D01*
X66701442Y-83829719D02*
X66701442Y-83972576D01*
X66701442Y-83972576D02*
X66653823Y-84163052D01*
X66653823Y-84163052D02*
X66606204Y-84258290D01*
X66606204Y-84258290D02*
X66510966Y-84353529D01*
X66510966Y-84353529D02*
X66368109Y-84401148D01*
X66368109Y-84401148D02*
X66130014Y-84401148D01*
X67653823Y-84401148D02*
X67082395Y-84401148D01*
X67368109Y-84401148D02*
X67368109Y-83401148D01*
X67368109Y-83401148D02*
X67272871Y-83544005D01*
X67272871Y-83544005D02*
X67177633Y-83639243D01*
X67177633Y-83639243D02*
X67082395Y-83686862D01*
X68272871Y-83401148D02*
X68368109Y-83401148D01*
X68368109Y-83401148D02*
X68463347Y-83448767D01*
X68463347Y-83448767D02*
X68510966Y-83496386D01*
X68510966Y-83496386D02*
X68558585Y-83591624D01*
X68558585Y-83591624D02*
X68606204Y-83782100D01*
X68606204Y-83782100D02*
X68606204Y-84020195D01*
X68606204Y-84020195D02*
X68558585Y-84210671D01*
X68558585Y-84210671D02*
X68510966Y-84305909D01*
X68510966Y-84305909D02*
X68463347Y-84353529D01*
X68463347Y-84353529D02*
X68368109Y-84401148D01*
X68368109Y-84401148D02*
X68272871Y-84401148D01*
X68272871Y-84401148D02*
X68177633Y-84353529D01*
X68177633Y-84353529D02*
X68130014Y-84305909D01*
X68130014Y-84305909D02*
X68082395Y-84210671D01*
X68082395Y-84210671D02*
X68034776Y-84020195D01*
X68034776Y-84020195D02*
X68034776Y-83782100D01*
X68034776Y-83782100D02*
X68082395Y-83591624D01*
X68082395Y-83591624D02*
X68130014Y-83496386D01*
X68130014Y-83496386D02*
X68177633Y-83448767D01*
X68177633Y-83448767D02*
X68272871Y-83401148D01*
X66677395Y-87527519D02*
X66677395Y-86527519D01*
X67248823Y-87527519D02*
X66820252Y-86956090D01*
X67248823Y-86527519D02*
X66677395Y-87098947D01*
X66606205Y-80628448D02*
X66606205Y-79628448D01*
X66606205Y-79628448D02*
X66844300Y-79628448D01*
X66844300Y-79628448D02*
X66987157Y-79676067D01*
X66987157Y-79676067D02*
X67082395Y-79771305D01*
X67082395Y-79771305D02*
X67130014Y-79866543D01*
X67130014Y-79866543D02*
X67177633Y-80057019D01*
X67177633Y-80057019D02*
X67177633Y-80199876D01*
X67177633Y-80199876D02*
X67130014Y-80390352D01*
X67130014Y-80390352D02*
X67082395Y-80485590D01*
X67082395Y-80485590D02*
X66987157Y-80580829D01*
X66987157Y-80580829D02*
X66844300Y-80628448D01*
X66844300Y-80628448D02*
X66606205Y-80628448D01*
X67653824Y-80628448D02*
X67844300Y-80628448D01*
X67844300Y-80628448D02*
X67939538Y-80580829D01*
X67939538Y-80580829D02*
X67987157Y-80533209D01*
X67987157Y-80533209D02*
X68082395Y-80390352D01*
X68082395Y-80390352D02*
X68130014Y-80199876D01*
X68130014Y-80199876D02*
X68130014Y-79818924D01*
X68130014Y-79818924D02*
X68082395Y-79723686D01*
X68082395Y-79723686D02*
X68034776Y-79676067D01*
X68034776Y-79676067D02*
X67939538Y-79628448D01*
X67939538Y-79628448D02*
X67749062Y-79628448D01*
X67749062Y-79628448D02*
X67653824Y-79676067D01*
X67653824Y-79676067D02*
X67606205Y-79723686D01*
X67606205Y-79723686D02*
X67558586Y-79818924D01*
X67558586Y-79818924D02*
X67558586Y-80057019D01*
X67558586Y-80057019D02*
X67606205Y-80152257D01*
X67606205Y-80152257D02*
X67653824Y-80199876D01*
X67653824Y-80199876D02*
X67749062Y-80247495D01*
X67749062Y-80247495D02*
X67939538Y-80247495D01*
X67939538Y-80247495D02*
X68034776Y-80199876D01*
X68034776Y-80199876D02*
X68082395Y-80152257D01*
X68082395Y-80152257D02*
X68130014Y-80057019D01*
X66677395Y-83754819D02*
X66677395Y-82754819D01*
X67248823Y-83754819D02*
X66820252Y-83183390D01*
X67248823Y-82754819D02*
X66677395Y-83326247D01*
X66606205Y-76855748D02*
X66606205Y-75855748D01*
X66606205Y-75855748D02*
X66844300Y-75855748D01*
X66844300Y-75855748D02*
X66987157Y-75903367D01*
X66987157Y-75903367D02*
X67082395Y-75998605D01*
X67082395Y-75998605D02*
X67130014Y-76093843D01*
X67130014Y-76093843D02*
X67177633Y-76284319D01*
X67177633Y-76284319D02*
X67177633Y-76427176D01*
X67177633Y-76427176D02*
X67130014Y-76617652D01*
X67130014Y-76617652D02*
X67082395Y-76712890D01*
X67082395Y-76712890D02*
X66987157Y-76808129D01*
X66987157Y-76808129D02*
X66844300Y-76855748D01*
X66844300Y-76855748D02*
X66606205Y-76855748D01*
X67749062Y-76284319D02*
X67653824Y-76236700D01*
X67653824Y-76236700D02*
X67606205Y-76189081D01*
X67606205Y-76189081D02*
X67558586Y-76093843D01*
X67558586Y-76093843D02*
X67558586Y-76046224D01*
X67558586Y-76046224D02*
X67606205Y-75950986D01*
X67606205Y-75950986D02*
X67653824Y-75903367D01*
X67653824Y-75903367D02*
X67749062Y-75855748D01*
X67749062Y-75855748D02*
X67939538Y-75855748D01*
X67939538Y-75855748D02*
X68034776Y-75903367D01*
X68034776Y-75903367D02*
X68082395Y-75950986D01*
X68082395Y-75950986D02*
X68130014Y-76046224D01*
X68130014Y-76046224D02*
X68130014Y-76093843D01*
X68130014Y-76093843D02*
X68082395Y-76189081D01*
X68082395Y-76189081D02*
X68034776Y-76236700D01*
X68034776Y-76236700D02*
X67939538Y-76284319D01*
X67939538Y-76284319D02*
X67749062Y-76284319D01*
X67749062Y-76284319D02*
X67653824Y-76331938D01*
X67653824Y-76331938D02*
X67606205Y-76379557D01*
X67606205Y-76379557D02*
X67558586Y-76474795D01*
X67558586Y-76474795D02*
X67558586Y-76665271D01*
X67558586Y-76665271D02*
X67606205Y-76760509D01*
X67606205Y-76760509D02*
X67653824Y-76808129D01*
X67653824Y-76808129D02*
X67749062Y-76855748D01*
X67749062Y-76855748D02*
X67939538Y-76855748D01*
X67939538Y-76855748D02*
X68034776Y-76808129D01*
X68034776Y-76808129D02*
X68082395Y-76760509D01*
X68082395Y-76760509D02*
X68130014Y-76665271D01*
X68130014Y-76665271D02*
X68130014Y-76474795D01*
X68130014Y-76474795D02*
X68082395Y-76379557D01*
X68082395Y-76379557D02*
X68034776Y-76331938D01*
X68034776Y-76331938D02*
X67939538Y-76284319D01*
X66677395Y-79982119D02*
X66677395Y-78982119D01*
X67248823Y-79982119D02*
X66820252Y-79410690D01*
X67248823Y-78982119D02*
X66677395Y-79553547D01*
X66606205Y-73082948D02*
X66606205Y-72082948D01*
X66606205Y-72082948D02*
X66844300Y-72082948D01*
X66844300Y-72082948D02*
X66987157Y-72130567D01*
X66987157Y-72130567D02*
X67082395Y-72225805D01*
X67082395Y-72225805D02*
X67130014Y-72321043D01*
X67130014Y-72321043D02*
X67177633Y-72511519D01*
X67177633Y-72511519D02*
X67177633Y-72654376D01*
X67177633Y-72654376D02*
X67130014Y-72844852D01*
X67130014Y-72844852D02*
X67082395Y-72940090D01*
X67082395Y-72940090D02*
X66987157Y-73035329D01*
X66987157Y-73035329D02*
X66844300Y-73082948D01*
X66844300Y-73082948D02*
X66606205Y-73082948D01*
X67510967Y-72082948D02*
X68177633Y-72082948D01*
X68177633Y-72082948D02*
X67749062Y-73082948D01*
X66677395Y-76209319D02*
X66677395Y-75209319D01*
X67248823Y-76209319D02*
X66820252Y-75637890D01*
X67248823Y-75209319D02*
X66677395Y-75780747D01*
X59334805Y-91946648D02*
X59334805Y-90946648D01*
X59334805Y-90946648D02*
X59572900Y-90946648D01*
X59572900Y-90946648D02*
X59715757Y-90994267D01*
X59715757Y-90994267D02*
X59810995Y-91089505D01*
X59810995Y-91089505D02*
X59858614Y-91184743D01*
X59858614Y-91184743D02*
X59906233Y-91375219D01*
X59906233Y-91375219D02*
X59906233Y-91518076D01*
X59906233Y-91518076D02*
X59858614Y-91708552D01*
X59858614Y-91708552D02*
X59810995Y-91803790D01*
X59810995Y-91803790D02*
X59715757Y-91899029D01*
X59715757Y-91899029D02*
X59572900Y-91946648D01*
X59572900Y-91946648D02*
X59334805Y-91946648D01*
X60763376Y-90946648D02*
X60572900Y-90946648D01*
X60572900Y-90946648D02*
X60477662Y-90994267D01*
X60477662Y-90994267D02*
X60430043Y-91041886D01*
X60430043Y-91041886D02*
X60334805Y-91184743D01*
X60334805Y-91184743D02*
X60287186Y-91375219D01*
X60287186Y-91375219D02*
X60287186Y-91756171D01*
X60287186Y-91756171D02*
X60334805Y-91851409D01*
X60334805Y-91851409D02*
X60382424Y-91899029D01*
X60382424Y-91899029D02*
X60477662Y-91946648D01*
X60477662Y-91946648D02*
X60668138Y-91946648D01*
X60668138Y-91946648D02*
X60763376Y-91899029D01*
X60763376Y-91899029D02*
X60810995Y-91851409D01*
X60810995Y-91851409D02*
X60858614Y-91756171D01*
X60858614Y-91756171D02*
X60858614Y-91518076D01*
X60858614Y-91518076D02*
X60810995Y-91422838D01*
X60810995Y-91422838D02*
X60763376Y-91375219D01*
X60763376Y-91375219D02*
X60668138Y-91327600D01*
X60668138Y-91327600D02*
X60477662Y-91327600D01*
X60477662Y-91327600D02*
X60382424Y-91375219D01*
X60382424Y-91375219D02*
X60334805Y-91422838D01*
X60334805Y-91422838D02*
X60287186Y-91518076D01*
X59405995Y-95073019D02*
X59405995Y-94073019D01*
X59977423Y-95073019D02*
X59548852Y-94501590D01*
X59977423Y-94073019D02*
X59405995Y-94644447D01*
X59334805Y-88173948D02*
X59334805Y-87173948D01*
X59334805Y-87173948D02*
X59572900Y-87173948D01*
X59572900Y-87173948D02*
X59715757Y-87221567D01*
X59715757Y-87221567D02*
X59810995Y-87316805D01*
X59810995Y-87316805D02*
X59858614Y-87412043D01*
X59858614Y-87412043D02*
X59906233Y-87602519D01*
X59906233Y-87602519D02*
X59906233Y-87745376D01*
X59906233Y-87745376D02*
X59858614Y-87935852D01*
X59858614Y-87935852D02*
X59810995Y-88031090D01*
X59810995Y-88031090D02*
X59715757Y-88126329D01*
X59715757Y-88126329D02*
X59572900Y-88173948D01*
X59572900Y-88173948D02*
X59334805Y-88173948D01*
X60810995Y-87173948D02*
X60334805Y-87173948D01*
X60334805Y-87173948D02*
X60287186Y-87650138D01*
X60287186Y-87650138D02*
X60334805Y-87602519D01*
X60334805Y-87602519D02*
X60430043Y-87554900D01*
X60430043Y-87554900D02*
X60668138Y-87554900D01*
X60668138Y-87554900D02*
X60763376Y-87602519D01*
X60763376Y-87602519D02*
X60810995Y-87650138D01*
X60810995Y-87650138D02*
X60858614Y-87745376D01*
X60858614Y-87745376D02*
X60858614Y-87983471D01*
X60858614Y-87983471D02*
X60810995Y-88078709D01*
X60810995Y-88078709D02*
X60763376Y-88126329D01*
X60763376Y-88126329D02*
X60668138Y-88173948D01*
X60668138Y-88173948D02*
X60430043Y-88173948D01*
X60430043Y-88173948D02*
X60334805Y-88126329D01*
X60334805Y-88126329D02*
X60287186Y-88078709D01*
X59405995Y-91300319D02*
X59405995Y-90300319D01*
X59977423Y-91300319D02*
X59548852Y-90728890D01*
X59977423Y-90300319D02*
X59405995Y-90871747D01*
X59334805Y-84401148D02*
X59334805Y-83401148D01*
X59334805Y-83401148D02*
X59572900Y-83401148D01*
X59572900Y-83401148D02*
X59715757Y-83448767D01*
X59715757Y-83448767D02*
X59810995Y-83544005D01*
X59810995Y-83544005D02*
X59858614Y-83639243D01*
X59858614Y-83639243D02*
X59906233Y-83829719D01*
X59906233Y-83829719D02*
X59906233Y-83972576D01*
X59906233Y-83972576D02*
X59858614Y-84163052D01*
X59858614Y-84163052D02*
X59810995Y-84258290D01*
X59810995Y-84258290D02*
X59715757Y-84353529D01*
X59715757Y-84353529D02*
X59572900Y-84401148D01*
X59572900Y-84401148D02*
X59334805Y-84401148D01*
X60763376Y-83734481D02*
X60763376Y-84401148D01*
X60525281Y-83353529D02*
X60287186Y-84067814D01*
X60287186Y-84067814D02*
X60906233Y-84067814D01*
X59405995Y-87527519D02*
X59405995Y-86527519D01*
X59977423Y-87527519D02*
X59548852Y-86956090D01*
X59977423Y-86527519D02*
X59405995Y-87098947D01*
X59334805Y-80628448D02*
X59334805Y-79628448D01*
X59334805Y-79628448D02*
X59572900Y-79628448D01*
X59572900Y-79628448D02*
X59715757Y-79676067D01*
X59715757Y-79676067D02*
X59810995Y-79771305D01*
X59810995Y-79771305D02*
X59858614Y-79866543D01*
X59858614Y-79866543D02*
X59906233Y-80057019D01*
X59906233Y-80057019D02*
X59906233Y-80199876D01*
X59906233Y-80199876D02*
X59858614Y-80390352D01*
X59858614Y-80390352D02*
X59810995Y-80485590D01*
X59810995Y-80485590D02*
X59715757Y-80580829D01*
X59715757Y-80580829D02*
X59572900Y-80628448D01*
X59572900Y-80628448D02*
X59334805Y-80628448D01*
X60239567Y-79628448D02*
X60858614Y-79628448D01*
X60858614Y-79628448D02*
X60525281Y-80009400D01*
X60525281Y-80009400D02*
X60668138Y-80009400D01*
X60668138Y-80009400D02*
X60763376Y-80057019D01*
X60763376Y-80057019D02*
X60810995Y-80104638D01*
X60810995Y-80104638D02*
X60858614Y-80199876D01*
X60858614Y-80199876D02*
X60858614Y-80437971D01*
X60858614Y-80437971D02*
X60810995Y-80533209D01*
X60810995Y-80533209D02*
X60763376Y-80580829D01*
X60763376Y-80580829D02*
X60668138Y-80628448D01*
X60668138Y-80628448D02*
X60382424Y-80628448D01*
X60382424Y-80628448D02*
X60287186Y-80580829D01*
X60287186Y-80580829D02*
X60239567Y-80533209D01*
X59405995Y-83754819D02*
X59405995Y-82754819D01*
X59977423Y-83754819D02*
X59548852Y-83183390D01*
X59977423Y-82754819D02*
X59405995Y-83326247D01*
X59334805Y-76855748D02*
X59334805Y-75855748D01*
X59334805Y-75855748D02*
X59572900Y-75855748D01*
X59572900Y-75855748D02*
X59715757Y-75903367D01*
X59715757Y-75903367D02*
X59810995Y-75998605D01*
X59810995Y-75998605D02*
X59858614Y-76093843D01*
X59858614Y-76093843D02*
X59906233Y-76284319D01*
X59906233Y-76284319D02*
X59906233Y-76427176D01*
X59906233Y-76427176D02*
X59858614Y-76617652D01*
X59858614Y-76617652D02*
X59810995Y-76712890D01*
X59810995Y-76712890D02*
X59715757Y-76808129D01*
X59715757Y-76808129D02*
X59572900Y-76855748D01*
X59572900Y-76855748D02*
X59334805Y-76855748D01*
X60287186Y-75950986D02*
X60334805Y-75903367D01*
X60334805Y-75903367D02*
X60430043Y-75855748D01*
X60430043Y-75855748D02*
X60668138Y-75855748D01*
X60668138Y-75855748D02*
X60763376Y-75903367D01*
X60763376Y-75903367D02*
X60810995Y-75950986D01*
X60810995Y-75950986D02*
X60858614Y-76046224D01*
X60858614Y-76046224D02*
X60858614Y-76141462D01*
X60858614Y-76141462D02*
X60810995Y-76284319D01*
X60810995Y-76284319D02*
X60239567Y-76855748D01*
X60239567Y-76855748D02*
X60858614Y-76855748D01*
X59405995Y-79982119D02*
X59405995Y-78982119D01*
X59977423Y-79982119D02*
X59548852Y-79410690D01*
X59977423Y-78982119D02*
X59405995Y-79553547D01*
X59334805Y-73082948D02*
X59334805Y-72082948D01*
X59334805Y-72082948D02*
X59572900Y-72082948D01*
X59572900Y-72082948D02*
X59715757Y-72130567D01*
X59715757Y-72130567D02*
X59810995Y-72225805D01*
X59810995Y-72225805D02*
X59858614Y-72321043D01*
X59858614Y-72321043D02*
X59906233Y-72511519D01*
X59906233Y-72511519D02*
X59906233Y-72654376D01*
X59906233Y-72654376D02*
X59858614Y-72844852D01*
X59858614Y-72844852D02*
X59810995Y-72940090D01*
X59810995Y-72940090D02*
X59715757Y-73035329D01*
X59715757Y-73035329D02*
X59572900Y-73082948D01*
X59572900Y-73082948D02*
X59334805Y-73082948D01*
X60858614Y-73082948D02*
X60287186Y-73082948D01*
X60572900Y-73082948D02*
X60572900Y-72082948D01*
X60572900Y-72082948D02*
X60477662Y-72225805D01*
X60477662Y-72225805D02*
X60382424Y-72321043D01*
X60382424Y-72321043D02*
X60287186Y-72368662D01*
X59405995Y-76209319D02*
X59405995Y-75209319D01*
X59977423Y-76209319D02*
X59548852Y-75637890D01*
X59977423Y-75209319D02*
X59405995Y-75780747D01*
D11*
%TO.C,U4*%
X131900000Y-77570000D02*
X78560000Y-77570000D01*
X78560000Y-77570000D02*
X78560000Y-100430000D01*
X78560000Y-100430000D02*
X131900000Y-100430000D01*
X131900000Y-100430000D02*
X131900000Y-77570000D01*
X134440000Y-85106690D02*
X129360000Y-85106690D01*
X129360000Y-85106690D02*
X129360000Y-92810000D01*
X129360000Y-92810000D02*
X134440000Y-92810000D01*
X134440000Y-92810000D02*
X134440000Y-85106690D01*
D12*
%TO.C,U1*%
X64990000Y-51955000D02*
X64990000Y-52200000D01*
X64990000Y-70075000D02*
X64990000Y-69830000D01*
X68850000Y-51955000D02*
X64990000Y-51955000D01*
X68850000Y-51955000D02*
X72710000Y-51955000D01*
X68850000Y-70075000D02*
X64990000Y-70075000D01*
X68850000Y-70075000D02*
X72710000Y-70075000D01*
X72710000Y-51955000D02*
X72710000Y-52200000D01*
X72710000Y-70075000D02*
X72710000Y-69830000D01*
X64137500Y-52200000D02*
X63797500Y-51730000D01*
X64477500Y-51730000D01*
X64137500Y-52200000D01*
G36*
X64137500Y-52200000D02*
G01*
X63797500Y-51730000D01*
X64477500Y-51730000D01*
X64137500Y-52200000D01*
G37*
%TO.C,SW17*%
X118000000Y-67750000D02*
X118000000Y-69250000D01*
X119250000Y-71750000D02*
X123750000Y-71750000D01*
X123750000Y-65250000D02*
X119250000Y-65250000D01*
X125000000Y-69250000D02*
X125000000Y-67750000D01*
%TO.C,SW16*%
X118000000Y-59750000D02*
X118000000Y-61250000D01*
X119250000Y-63750000D02*
X123750000Y-63750000D01*
X123750000Y-57250000D02*
X119250000Y-57250000D01*
X125000000Y-61250000D02*
X125000000Y-59750000D01*
%TO.C,SW15*%
X118000000Y-51750000D02*
X118000000Y-53250000D01*
X119250000Y-55750000D02*
X123750000Y-55750000D01*
X123750000Y-49250000D02*
X119250000Y-49250000D01*
X125000000Y-53250000D02*
X125000000Y-51750000D01*
%TO.C,SW14*%
X118000000Y-43750000D02*
X118000000Y-45250000D01*
X119250000Y-47750000D02*
X123750000Y-47750000D01*
X123750000Y-41250000D02*
X119250000Y-41250000D01*
X125000000Y-45250000D02*
X125000000Y-43750000D01*
%TO.C,SW13*%
X107750000Y-67750000D02*
X107750000Y-69250000D01*
X109000000Y-71750000D02*
X113500000Y-71750000D01*
X113500000Y-65250000D02*
X109000000Y-65250000D01*
X114750000Y-69250000D02*
X114750000Y-67750000D01*
%TO.C,SW12*%
X107750000Y-59750000D02*
X107750000Y-61250000D01*
X109000000Y-63750000D02*
X113500000Y-63750000D01*
X113500000Y-57250000D02*
X109000000Y-57250000D01*
X114750000Y-61250000D02*
X114750000Y-59750000D01*
%TO.C,SW11*%
X107750000Y-51750000D02*
X107750000Y-53250000D01*
X109000000Y-55750000D02*
X113500000Y-55750000D01*
X113500000Y-49250000D02*
X109000000Y-49250000D01*
X114750000Y-53250000D02*
X114750000Y-51750000D01*
%TO.C,SW10*%
X107750000Y-43750000D02*
X107750000Y-45250000D01*
X109000000Y-47750000D02*
X113500000Y-47750000D01*
X113500000Y-41250000D02*
X109000000Y-41250000D01*
X114750000Y-45250000D02*
X114750000Y-43750000D01*
%TO.C,SW9*%
X97000000Y-67750000D02*
X97000000Y-69250000D01*
X98250000Y-71750000D02*
X102750000Y-71750000D01*
X102750000Y-65250000D02*
X98250000Y-65250000D01*
X104000000Y-69250000D02*
X104000000Y-67750000D01*
%TO.C,SW8*%
X97000000Y-59750000D02*
X97000000Y-61250000D01*
X98250000Y-63750000D02*
X102750000Y-63750000D01*
X102750000Y-57250000D02*
X98250000Y-57250000D01*
X104000000Y-61250000D02*
X104000000Y-59750000D01*
%TO.C,SW7*%
X97000000Y-51750000D02*
X97000000Y-53250000D01*
X98250000Y-55750000D02*
X102750000Y-55750000D01*
X102750000Y-49250000D02*
X98250000Y-49250000D01*
X104000000Y-53250000D02*
X104000000Y-51750000D01*
%TO.C,SW6*%
X97000000Y-43750000D02*
X97000000Y-45250000D01*
X98250000Y-47750000D02*
X102750000Y-47750000D01*
X102750000Y-41250000D02*
X98250000Y-41250000D01*
X104000000Y-45250000D02*
X104000000Y-43750000D01*
%TO.C,SW5*%
X83130000Y-67750000D02*
X83130000Y-69250000D01*
X84380000Y-71750000D02*
X88880000Y-71750000D01*
X88880000Y-65250000D02*
X84380000Y-65250000D01*
X90130000Y-69250000D02*
X90130000Y-67750000D01*
%TO.C,SW4*%
X83000000Y-59750000D02*
X83000000Y-61250000D01*
X84250000Y-63750000D02*
X88750000Y-63750000D01*
X88750000Y-57250000D02*
X84250000Y-57250000D01*
X90000000Y-61250000D02*
X90000000Y-59750000D01*
%TO.C,SW3*%
X83000000Y-51750000D02*
X83000000Y-53250000D01*
X84250000Y-55750000D02*
X88750000Y-55750000D01*
X88750000Y-49250000D02*
X84250000Y-49250000D01*
X90000000Y-53250000D02*
X90000000Y-51750000D01*
%TO.C,SW2*%
X83000000Y-43750000D02*
X83000000Y-45250000D01*
X84250000Y-47750000D02*
X88750000Y-47750000D01*
X88750000Y-41250000D02*
X84250000Y-41250000D01*
X90000000Y-45250000D02*
X90000000Y-43750000D01*
%TO.C,SW1*%
X95620000Y-23640000D02*
X97360000Y-23640000D01*
X95620000Y-25380000D02*
X95620000Y-23640000D01*
X95860000Y-23880000D02*
X95860000Y-28580000D01*
X95860000Y-28580000D02*
X103060000Y-28580000D01*
X103060000Y-23880000D02*
X95860000Y-23880000D01*
X103060000Y-28580000D02*
X103060000Y-23880000D01*
%TO.C,R2*%
X96230000Y-35630000D02*
X102770000Y-35630000D01*
X96230000Y-35960000D02*
X96230000Y-35630000D01*
X96230000Y-38040000D02*
X96230000Y-38370000D01*
X96230000Y-38370000D02*
X102770000Y-38370000D01*
X102770000Y-35630000D02*
X102770000Y-35960000D01*
X102770000Y-38370000D02*
X102770000Y-38040000D01*
%TO.C,R1*%
X96230000Y-31580000D02*
X102770000Y-31580000D01*
X96230000Y-31910000D02*
X96230000Y-31580000D01*
X96230000Y-33990000D02*
X96230000Y-34320000D01*
X96230000Y-34320000D02*
X102770000Y-34320000D01*
X102770000Y-31580000D02*
X102770000Y-31910000D01*
X102770000Y-34320000D02*
X102770000Y-33990000D01*
D13*
%TO.C,DS2*%
X107630000Y-35920000D02*
X107630000Y-21920000D01*
X107630000Y-21920000D02*
X144130000Y-21920000D01*
X144130000Y-21920000D02*
X144130000Y-35920000D01*
X144130000Y-35920000D02*
X107630000Y-35920000D01*
D14*
X118400000Y-36520000D02*
G75*
G02*
X118160000Y-36520000I-120000J0D01*
G01*
X118160000Y-36520000D02*
G75*
G02*
X118400000Y-36520000I120000J0D01*
G01*
D13*
%TO.C,DS1*%
X54630000Y-35920000D02*
X54630000Y-21920000D01*
X54630000Y-21920000D02*
X91130000Y-21920000D01*
X91130000Y-21920000D02*
X91130000Y-35920000D01*
X91130000Y-35920000D02*
X54630000Y-35920000D01*
D14*
X65400000Y-36520000D02*
G75*
G02*
X65160000Y-36520000I-120000J0D01*
G01*
X65160000Y-36520000D02*
G75*
G02*
X65400000Y-36520000I120000J0D01*
G01*
D12*
%TO.C,D16*%
X75194329Y-86272700D02*
X73810700Y-86272700D01*
X77847071Y-86272700D02*
G75*
G02*
X75194329Y-86272700I-1326371J0D01*
G01*
X75194329Y-86272700D02*
G75*
G02*
X77847071Y-86272700I1326371J0D01*
G01*
%TO.C,D15*%
X75194329Y-82500000D02*
X73810700Y-82500000D01*
X77847071Y-82500000D02*
G75*
G02*
X75194329Y-82500000I-1326371J0D01*
G01*
X75194329Y-82500000D02*
G75*
G02*
X77847071Y-82500000I1326371J0D01*
G01*
%TO.C,D14*%
X75194329Y-78727300D02*
X73810700Y-78727300D01*
X77847071Y-78727300D02*
G75*
G02*
X75194329Y-78727300I-1326371J0D01*
G01*
X75194329Y-78727300D02*
G75*
G02*
X77847071Y-78727300I1326371J0D01*
G01*
%TO.C,D13*%
X75194329Y-74954500D02*
X73810700Y-74954500D01*
X77847071Y-74954500D02*
G75*
G02*
X75194329Y-74954500I-1326371J0D01*
G01*
X75194329Y-74954500D02*
G75*
G02*
X77847071Y-74954500I1326371J0D01*
G01*
%TO.C,D12*%
X67922929Y-93818200D02*
X66539300Y-93818200D01*
X70575671Y-93818200D02*
G75*
G02*
X67922929Y-93818200I-1326371J0D01*
G01*
X67922929Y-93818200D02*
G75*
G02*
X70575671Y-93818200I1326371J0D01*
G01*
%TO.C,D11*%
X67922929Y-90045500D02*
X66539300Y-90045500D01*
X70575671Y-90045500D02*
G75*
G02*
X67922929Y-90045500I-1326371J0D01*
G01*
X67922929Y-90045500D02*
G75*
G02*
X70575671Y-90045500I1326371J0D01*
G01*
%TO.C,D10*%
X67922929Y-86272700D02*
X66539300Y-86272700D01*
X70575671Y-86272700D02*
G75*
G02*
X67922929Y-86272700I-1326371J0D01*
G01*
X67922929Y-86272700D02*
G75*
G02*
X70575671Y-86272700I1326371J0D01*
G01*
%TO.C,D9*%
X67922929Y-82500000D02*
X66539300Y-82500000D01*
X70575671Y-82500000D02*
G75*
G02*
X67922929Y-82500000I-1326371J0D01*
G01*
X67922929Y-82500000D02*
G75*
G02*
X70575671Y-82500000I1326371J0D01*
G01*
%TO.C,D8*%
X67922929Y-78727300D02*
X66539300Y-78727300D01*
X70575671Y-78727300D02*
G75*
G02*
X67922929Y-78727300I-1326371J0D01*
G01*
X67922929Y-78727300D02*
G75*
G02*
X70575671Y-78727300I1326371J0D01*
G01*
%TO.C,D7*%
X67922929Y-74954500D02*
X66539300Y-74954500D01*
X70575671Y-74954500D02*
G75*
G02*
X67922929Y-74954500I-1326371J0D01*
G01*
X67922929Y-74954500D02*
G75*
G02*
X70575671Y-74954500I1326371J0D01*
G01*
%TO.C,D6*%
X60651529Y-93818200D02*
X59267900Y-93818200D01*
X63304271Y-93818200D02*
G75*
G02*
X60651529Y-93818200I-1326371J0D01*
G01*
X60651529Y-93818200D02*
G75*
G02*
X63304271Y-93818200I1326371J0D01*
G01*
%TO.C,D5*%
X60651529Y-90045500D02*
X59267900Y-90045500D01*
X63304271Y-90045500D02*
G75*
G02*
X60651529Y-90045500I-1326371J0D01*
G01*
X60651529Y-90045500D02*
G75*
G02*
X63304271Y-90045500I1326371J0D01*
G01*
%TO.C,D4*%
X60651529Y-86272700D02*
X59267900Y-86272700D01*
X63304271Y-86272700D02*
G75*
G02*
X60651529Y-86272700I-1326371J0D01*
G01*
X60651529Y-86272700D02*
G75*
G02*
X63304271Y-86272700I1326371J0D01*
G01*
%TO.C,D3*%
X60651529Y-82500000D02*
X59267900Y-82500000D01*
X63304271Y-82500000D02*
G75*
G02*
X60651529Y-82500000I-1326371J0D01*
G01*
X60651529Y-82500000D02*
G75*
G02*
X63304271Y-82500000I1326371J0D01*
G01*
%TO.C,D2*%
X60651529Y-78727300D02*
X59267900Y-78727300D01*
X63304271Y-78727300D02*
G75*
G02*
X60651529Y-78727300I-1326371J0D01*
G01*
X60651529Y-78727300D02*
G75*
G02*
X63304271Y-78727300I1326371J0D01*
G01*
%TO.C,D1*%
X60651529Y-74954500D02*
X59267900Y-74954500D01*
X63304271Y-74954500D02*
G75*
G02*
X60651529Y-74954500I-1326371J0D01*
G01*
X60651529Y-74954500D02*
G75*
G02*
X63304271Y-74954500I1326371J0D01*
G01*
%TD*%
M02*
