%TF.GenerationSoftware,KiCad,Pcbnew,8.0.8*%
%TF.CreationDate,2025-05-29T15:04:49-04:00*%
%TF.ProjectId,meowwww x3,6d656f77-7777-4772-9078-332e6b696361,rev?*%
%TF.SameCoordinates,Original*%
%TF.FileFunction,Soldermask,Bot*%
%TF.FilePolarity,Negative*%
%FSLAX46Y46*%
G04 Gerber Fmt 4.6, Leading zero omitted, Abs format (unit mm)*
G04 Created by KiCad (PCBNEW 8.0.8) date 2025-05-29 15:04:49*
%MOMM*%
%LPD*%
G01*
G04 APERTURE LIST*
G04 Aperture macros list*
%AMRoundRect*
0 Rectangle with rounded corners*
0 $1 Rounding radius*
0 $2 $3 $4 $5 $6 $7 $8 $9 X,Y pos of 4 corners*
0 Add a 4 corners polygon primitive as box body*
4,1,4,$2,$3,$4,$5,$6,$7,$8,$9,$2,$3,0*
0 Add four circle primitives for the rounded corners*
1,1,$1+$1,$2,$3*
1,1,$1+$1,$4,$5*
1,1,$1+$1,$6,$7*
1,1,$1+$1,$8,$9*
0 Add four rect primitives between the rounded corners*
20,1,$1+$1,$2,$3,$4,$5,0*
20,1,$1+$1,$4,$5,$6,$7,0*
20,1,$1+$1,$6,$7,$8,$9,0*
20,1,$1+$1,$8,$9,$2,$3,0*%
G04 Aperture macros list end*
%ADD10RoundRect,0.102000X-0.754000X0.754000X-0.754000X-0.754000X0.754000X-0.754000X0.754000X0.754000X0*%
%ADD11C,2.000000*%
%ADD12R,1.200000X1.200000*%
%ADD13C,1.200000*%
%ADD14C,1.600000*%
%ADD15O,1.600000X1.600000*%
%ADD16RoundRect,0.102000X-0.525000X-0.525000X0.525000X-0.525000X0.525000X0.525000X-0.525000X0.525000X0*%
%ADD17C,1.254000*%
%ADD18R,1.600000X1.600000*%
G04 APERTURE END LIST*
D10*
%TO.C,U4*%
X129360000Y-80110000D03*
X126820000Y-80110000D03*
X124280000Y-80110000D03*
X121740000Y-80110000D03*
X119200000Y-80110000D03*
X116660000Y-80110000D03*
X114120000Y-80110000D03*
X111580000Y-80110000D03*
X109040000Y-80110000D03*
X106500000Y-80110000D03*
X103960000Y-80110000D03*
X101420000Y-80110000D03*
X98880000Y-80110000D03*
X96340000Y-80110000D03*
X93800000Y-80110000D03*
X91260000Y-80110000D03*
X88720000Y-80110000D03*
X86180000Y-80110000D03*
X83640000Y-80110000D03*
X81100000Y-80110000D03*
X129360000Y-97890000D03*
X126820000Y-97890000D03*
X124280000Y-97890000D03*
X121740000Y-97890000D03*
X119200000Y-97890000D03*
X116660000Y-97890000D03*
X114120000Y-97890000D03*
X111580000Y-97890000D03*
X109040000Y-97890000D03*
X106500000Y-97890000D03*
X103960000Y-97890000D03*
X101420000Y-97890000D03*
X98880000Y-97890000D03*
X96340000Y-97890000D03*
X93800000Y-97890000D03*
X91260000Y-97890000D03*
X88720000Y-97890000D03*
X86180000Y-97890000D03*
X83640000Y-97890000D03*
X81100000Y-97890000D03*
%TD*%
D11*
%TO.C,SW17*%
X118250000Y-66250000D03*
X124750000Y-66250000D03*
X118250000Y-70750000D03*
X124750000Y-70750000D03*
%TD*%
%TO.C,SW16*%
X118250000Y-58250000D03*
X124750000Y-58250000D03*
X118250000Y-62750000D03*
X124750000Y-62750000D03*
%TD*%
%TO.C,SW15*%
X118250000Y-50250000D03*
X124750000Y-50250000D03*
X118250000Y-54750000D03*
X124750000Y-54750000D03*
%TD*%
%TO.C,SW14*%
X118250000Y-42250000D03*
X124750000Y-42250000D03*
X118250000Y-46750000D03*
X124750000Y-46750000D03*
%TD*%
%TO.C,SW13*%
X108000000Y-66250000D03*
X114500000Y-66250000D03*
X108000000Y-70750000D03*
X114500000Y-70750000D03*
%TD*%
%TO.C,SW12*%
X108000000Y-58250000D03*
X114500000Y-58250000D03*
X108000000Y-62750000D03*
X114500000Y-62750000D03*
%TD*%
%TO.C,SW11*%
X108000000Y-50250000D03*
X114500000Y-50250000D03*
X108000000Y-54750000D03*
X114500000Y-54750000D03*
%TD*%
%TO.C,SW10*%
X108000000Y-42250000D03*
X114500000Y-42250000D03*
X108000000Y-46750000D03*
X114500000Y-46750000D03*
%TD*%
%TO.C,SW9*%
X97250000Y-66250000D03*
X103750000Y-66250000D03*
X97250000Y-70750000D03*
X103750000Y-70750000D03*
%TD*%
%TO.C,SW8*%
X97250000Y-58250000D03*
X103750000Y-58250000D03*
X97250000Y-62750000D03*
X103750000Y-62750000D03*
%TD*%
%TO.C,SW7*%
X97250000Y-50250000D03*
X103750000Y-50250000D03*
X97250000Y-54750000D03*
X103750000Y-54750000D03*
%TD*%
%TO.C,SW6*%
X97250000Y-42250000D03*
X103750000Y-42250000D03*
X97250000Y-46750000D03*
X103750000Y-46750000D03*
%TD*%
%TO.C,SW5*%
X83380000Y-66250000D03*
X89880000Y-66250000D03*
X83380000Y-70750000D03*
X89880000Y-70750000D03*
%TD*%
%TO.C,SW4*%
X83250000Y-58250000D03*
X89750000Y-58250000D03*
X83250000Y-62750000D03*
X89750000Y-62750000D03*
%TD*%
%TO.C,SW3*%
X83250000Y-50250000D03*
X89750000Y-50250000D03*
X83250000Y-54750000D03*
X89750000Y-54750000D03*
%TD*%
%TO.C,SW2*%
X83250000Y-42250000D03*
X89750000Y-42250000D03*
X83250000Y-46750000D03*
X89750000Y-46750000D03*
%TD*%
D12*
%TO.C,SW1*%
X96920000Y-24960000D03*
D13*
X99460000Y-24960000D03*
X102000000Y-24960000D03*
X96920000Y-27500000D03*
X99460000Y-27500000D03*
X102000000Y-27500000D03*
%TD*%
D14*
%TO.C,R2*%
X95690000Y-37000000D03*
D15*
X103310000Y-37000000D03*
%TD*%
D14*
%TO.C,R1*%
X95690000Y-32950000D03*
D15*
X103310000Y-32950000D03*
%TD*%
D16*
%TO.C,DS2*%
X118260000Y-34000000D03*
D17*
X120800000Y-34000000D03*
X123340000Y-34000000D03*
X125880000Y-34000000D03*
X128420000Y-34000000D03*
X130960000Y-34000000D03*
X133500000Y-23840000D03*
X130960000Y-23840000D03*
X128420000Y-23840000D03*
X125880000Y-23840000D03*
X123340000Y-23840000D03*
X120800000Y-23840000D03*
X118260000Y-23840000D03*
X133500000Y-34000000D03*
%TD*%
D16*
%TO.C,DS1*%
X65260000Y-34000000D03*
D17*
X67800000Y-34000000D03*
X70340000Y-34000000D03*
X72880000Y-34000000D03*
X75420000Y-34000000D03*
X77960000Y-34000000D03*
X80500000Y-23840000D03*
X77960000Y-23840000D03*
X75420000Y-23840000D03*
X72880000Y-23840000D03*
X70340000Y-23840000D03*
X67800000Y-23840000D03*
X65260000Y-23840000D03*
X80500000Y-34000000D03*
%TD*%
D18*
%TO.C,D16*%
X72710700Y-86272700D03*
D15*
X76520700Y-86272700D03*
%TD*%
D18*
%TO.C,D15*%
X72710700Y-82500000D03*
D15*
X76520700Y-82500000D03*
%TD*%
D18*
%TO.C,D14*%
X72710700Y-78727300D03*
D15*
X76520700Y-78727300D03*
%TD*%
D18*
%TO.C,D13*%
X72710700Y-74954500D03*
D15*
X76520700Y-74954500D03*
%TD*%
D18*
%TO.C,D12*%
X65439300Y-93818200D03*
D15*
X69249300Y-93818200D03*
%TD*%
D18*
%TO.C,D11*%
X65439300Y-90045500D03*
D15*
X69249300Y-90045500D03*
%TD*%
D18*
%TO.C,D10*%
X65439300Y-86272700D03*
D15*
X69249300Y-86272700D03*
%TD*%
D18*
%TO.C,D9*%
X65439300Y-82500000D03*
D15*
X69249300Y-82500000D03*
%TD*%
D18*
%TO.C,D8*%
X65439300Y-78727300D03*
D15*
X69249300Y-78727300D03*
%TD*%
D18*
%TO.C,D7*%
X65439300Y-74954500D03*
D15*
X69249300Y-74954500D03*
%TD*%
D18*
%TO.C,D6*%
X58167900Y-93818200D03*
D15*
X61977900Y-93818200D03*
%TD*%
D18*
%TO.C,D5*%
X58167900Y-90045500D03*
D15*
X61977900Y-90045500D03*
%TD*%
D18*
%TO.C,D4*%
X58167900Y-86272700D03*
D15*
X61977900Y-86272700D03*
%TD*%
D18*
%TO.C,D3*%
X58167900Y-82500000D03*
D15*
X61977900Y-82500000D03*
%TD*%
D18*
%TO.C,D2*%
X58167900Y-78727300D03*
D15*
X61977900Y-78727300D03*
%TD*%
D18*
%TO.C,D1*%
X58167900Y-74954500D03*
D15*
X61977900Y-74954500D03*
%TD*%
M02*
