%TF.GenerationSoftware,KiCad,Pcbnew,8.0.8*%
%TF.CreationDate,2025-05-29T15:04:49-04:00*%
%TF.ProjectId,meowwww x3,6d656f77-7777-4772-9078-332e6b696361,rev?*%
%TF.SameCoordinates,Original*%
%TF.FileFunction,Copper,L1,Top*%
%TF.FilePolarity,Positive*%
%FSLAX46Y46*%
G04 Gerber Fmt 4.6, Leading zero omitted, Abs format (unit mm)*
G04 Created by KiCad (PCBNEW 8.0.8) date 2025-05-29 15:04:49*
%MOMM*%
%LPD*%
G01*
G04 APERTURE LIST*
G04 Aperture macros list*
%AMRoundRect*
0 Rectangle with rounded corners*
0 $1 Rounding radius*
0 $2 $3 $4 $5 $6 $7 $8 $9 X,Y pos of 4 corners*
0 Add a 4 corners polygon primitive as box body*
4,1,4,$2,$3,$4,$5,$6,$7,$8,$9,$2,$3,0*
0 Add four circle primitives for the rounded corners*
1,1,$1+$1,$2,$3*
1,1,$1+$1,$4,$5*
1,1,$1+$1,$6,$7*
1,1,$1+$1,$8,$9*
0 Add four rect primitives between the rounded corners*
20,1,$1+$1,$2,$3,$4,$5,0*
20,1,$1+$1,$4,$5,$6,$7,0*
20,1,$1+$1,$6,$7,$8,$9,0*
20,1,$1+$1,$8,$9,$2,$3,0*%
G04 Aperture macros list end*
%TA.AperFunction,ComponentPad*%
%ADD10R,1.508000X1.508000*%
%TD*%
%TA.AperFunction,SMDPad,CuDef*%
%ADD11RoundRect,0.150000X-0.875000X-0.150000X0.875000X-0.150000X0.875000X0.150000X-0.875000X0.150000X0*%
%TD*%
%TA.AperFunction,ComponentPad*%
%ADD12C,2.000000*%
%TD*%
%TA.AperFunction,ComponentPad*%
%ADD13R,1.200000X1.200000*%
%TD*%
%TA.AperFunction,ComponentPad*%
%ADD14C,1.200000*%
%TD*%
%TA.AperFunction,ComponentPad*%
%ADD15C,1.600000*%
%TD*%
%TA.AperFunction,ComponentPad*%
%ADD16O,1.600000X1.600000*%
%TD*%
%TA.AperFunction,ComponentPad*%
%ADD17R,1.050000X1.050000*%
%TD*%
%TA.AperFunction,ComponentPad*%
%ADD18C,1.050000*%
%TD*%
%TA.AperFunction,ComponentPad*%
%ADD19R,1.600000X1.600000*%
%TD*%
%TA.AperFunction,ViaPad*%
%ADD20C,0.600000*%
%TD*%
%TA.AperFunction,Conductor*%
%ADD21C,0.200000*%
%TD*%
G04 APERTURE END LIST*
D10*
%TO.P,U4,GP0,GP0*%
%TO.N,Net-(U1-SDA)*%
X129360000Y-80110000D03*
%TO.P,U4,GP1,GP1*%
%TO.N,Net-(U1-SCK)*%
X126820000Y-80110000D03*
%TO.P,U4,GND4,GND4*%
%TO.N,Net-(U1-A0)*%
X124280000Y-80110000D03*
%TO.P,U4,GP2,GP2*%
%TO.N,unconnected-(U4-PadGP2)*%
X121740000Y-80110000D03*
%TO.P,U4,GP3,GP3*%
%TO.N,ro2*%
X119200000Y-80110000D03*
%TO.P,U4,GP4,GP4*%
%TO.N,ro3*%
X116660000Y-80110000D03*
%TO.P,U4,GP5,GP5*%
%TO.N,ro4*%
X114120000Y-80110000D03*
%TO.P,U4,GND5,GND5*%
%TO.N,unconnected-(U4-PadGND5)*%
X111580000Y-80110000D03*
%TO.P,U4,GP6,GP6*%
%TO.N,col1*%
X109040000Y-80110000D03*
%TO.P,U4,GP7,GP7*%
%TO.N,col2*%
X106500000Y-80110000D03*
%TO.P,U4,GP8,GP8*%
%TO.N,col3*%
X103960000Y-80110000D03*
%TO.P,U4,GP9,GP9*%
%TO.N,col4*%
X101420000Y-80110000D03*
%TO.P,U4,GND6,GND6*%
%TO.N,eee*%
X98880000Y-80110000D03*
%TO.P,U4,GP10,GP10*%
%TO.N,meow*%
X96340000Y-80110000D03*
%TO.P,U4,GP11,GP11*%
%TO.N,one*%
X93800000Y-80110000D03*
%TO.P,U4,GP12,GP12*%
%TO.N,two*%
X91260000Y-80110000D03*
%TO.P,U4,GP13,GP13*%
%TO.N,ro1*%
X88720000Y-80110000D03*
%TO.P,U4,GND7,GND7*%
%TO.N,unconnected-(U4-PadGND7)*%
X86180000Y-80110000D03*
%TO.P,U4,GP14,GP14*%
%TO.N,Net-(DS2-Pad11)*%
X83640000Y-80110000D03*
%TO.P,U4,GP15,GP15*%
%TO.N,Net-(DS2-Pad10)*%
X81100000Y-80110000D03*
%TO.P,U4,VBUS,VBUS*%
%TO.N,unconnected-(U4-PadVBUS)*%
X129360000Y-97890000D03*
%TO.P,U4,VSYS,VSYS*%
%TO.N,unconnected-(U4-PadVSYS)*%
X126820000Y-97890000D03*
%TO.P,U4,GND,GND*%
%TO.N,Net-(U1-VSS)*%
X124280000Y-97890000D03*
%TO.P,U4,3V3_EN,3V3_EN*%
%TO.N,unconnected-(U4-Pad3V3_EN)*%
X121740000Y-97890000D03*
%TO.P,U4,3V3,3V3*%
%TO.N,ro2*%
X119200000Y-97890000D03*
%TO.P,U4,ADC_VREF,ADC_VREF*%
%TO.N,unconnected-(U4-PadADC_VREF)*%
X116660000Y-97890000D03*
%TO.P,U4,GP28_A2,GP28_A2*%
%TO.N,unconnected-(U4-PadGP28_A2)*%
X114120000Y-97890000D03*
%TO.P,U4,AGND,AGND*%
%TO.N,unconnected-(U4-PadAGND)*%
X111580000Y-97890000D03*
%TO.P,U4,GP27_A1,GP27_A1*%
%TO.N,unconnected-(U4-PadGP27_A1)*%
X109040000Y-97890000D03*
%TO.P,U4,GP26_A0,GP26_A0*%
%TO.N,Net-(DS2-Pad14)*%
X106500000Y-97890000D03*
%TO.P,U4,RUN,RUN*%
%TO.N,unconnected-(U4-PadRUN)*%
X103960000Y-97890000D03*
%TO.P,U4,GP22,GP22*%
%TO.N,Net-(DS1-Pad8)*%
X101420000Y-97890000D03*
%TO.P,U4,GND2,GND2*%
%TO.N,unconnected-(U4-PadGND2)*%
X98880000Y-97890000D03*
%TO.P,U4,GP21,GP21*%
%TO.N,Net-(DS1-Pad6)*%
X96340000Y-97890000D03*
%TO.P,U4,GP20,GP20*%
%TO.N,Net-(DS1-Pad10)*%
X93800000Y-97890000D03*
%TO.P,U4,GP19,GP19*%
%TO.N,Net-(DS1-Pad11)*%
X91260000Y-97890000D03*
%TO.P,U4,GP18,GP18*%
%TO.N,Net-(DS1-Pad14)*%
X88720000Y-97890000D03*
%TO.P,U4,GND3,GND3*%
%TO.N,unconnected-(U4-PadGND3)*%
X86180000Y-97890000D03*
%TO.P,U4,GP17,GP17*%
%TO.N,ro4*%
X83640000Y-97890000D03*
%TO.P,U4,GP16,GP16*%
%TO.N,Net-(DS2-Pad8)*%
X81100000Y-97890000D03*
%TD*%
D11*
%TO.P,U1,1,GPB0*%
%TO.N,Net-(U1-GPB0)*%
X64200000Y-52760000D03*
%TO.P,U1,2,GPB1*%
%TO.N,Net-(U1-GPB1)*%
X64200000Y-54030000D03*
%TO.P,U1,3,GPB2*%
%TO.N,Net-(U1-GPB2)*%
X64200000Y-55300000D03*
%TO.P,U1,4,GPB3*%
%TO.N,Net-(U1-GPB3)*%
X64200000Y-56570000D03*
%TO.P,U1,5,GPB4*%
%TO.N,Net-(U1-GPB4)*%
X64200000Y-57840000D03*
%TO.P,U1,6,GPB5*%
%TO.N,Net-(U1-GPB5)*%
X64200000Y-59110000D03*
%TO.P,U1,7,GPB6*%
%TO.N,Net-(U1-GPB6)*%
X64200000Y-60380000D03*
%TO.P,U1,8,GPB7*%
%TO.N,Net-(U1-GPB7)*%
X64200000Y-61650000D03*
%TO.P,U1,9,VDD*%
%TO.N,ro2*%
X64200000Y-62920000D03*
%TO.P,U1,10,VSS*%
%TO.N,Net-(U1-VSS)*%
X64200000Y-64190000D03*
%TO.P,U1,11,NC*%
%TO.N,unconnected-(U1-NC-Pad11)*%
X64200000Y-65460000D03*
%TO.P,U1,12,SCK*%
%TO.N,Net-(U1-SCK)*%
X64200000Y-66730000D03*
%TO.P,U1,13,SDA*%
%TO.N,Net-(U1-SDA)*%
X64200000Y-68000000D03*
%TO.P,U1,14,NC*%
%TO.N,unconnected-(U1-NC-Pad14)*%
X64200000Y-69270000D03*
%TO.P,U1,15,A0*%
%TO.N,Net-(U1-A0)*%
X73500000Y-69270000D03*
%TO.P,U1,16,A1*%
X73500000Y-68000000D03*
%TO.P,U1,17,A2*%
X73500000Y-66730000D03*
%TO.P,U1,18,~{RESET}*%
%TO.N,ro2*%
X73500000Y-65460000D03*
%TO.P,U1,19,INTB*%
%TO.N,unconnected-(U1-INTB-Pad19)*%
X73500000Y-64190000D03*
%TO.P,U1,20,INTA*%
%TO.N,unconnected-(U1-INTA-Pad20)*%
X73500000Y-62920000D03*
%TO.P,U1,21,GPA0*%
%TO.N,Net-(U1-GPA0)*%
X73500000Y-61650000D03*
%TO.P,U1,22,GPA1*%
%TO.N,Net-(U1-GPA1)*%
X73500000Y-60380000D03*
%TO.P,U1,23,GPA2*%
%TO.N,Net-(U1-GPA2)*%
X73500000Y-59110000D03*
%TO.P,U1,24,GPA3*%
%TO.N,Net-(U1-GPA3)*%
X73500000Y-57840000D03*
%TO.P,U1,25,GPA4*%
%TO.N,Net-(U1-GPA4)*%
X73500000Y-56570000D03*
%TO.P,U1,26,GPA5*%
%TO.N,Net-(U1-GPA5)*%
X73500000Y-55300000D03*
%TO.P,U1,27,GPA6*%
%TO.N,Net-(U1-GPA6)*%
X73500000Y-54030000D03*
%TO.P,U1,28,GPA7*%
%TO.N,Net-(U1-GPA7)*%
X73500000Y-52760000D03*
%TD*%
D12*
%TO.P,SW17,1,1*%
%TO.N,col1*%
X118250000Y-66250000D03*
X124750000Y-66250000D03*
%TO.P,SW17,2,2*%
%TO.N,Net-(D13-A)*%
X118250000Y-70750000D03*
X124750000Y-70750000D03*
%TD*%
%TO.P,SW16,1,1*%
%TO.N,col1*%
X118250000Y-58250000D03*
X124750000Y-58250000D03*
%TO.P,SW16,2,2*%
%TO.N,Net-(D12-A)*%
X118250000Y-62750000D03*
X124750000Y-62750000D03*
%TD*%
%TO.P,SW15,1,1*%
%TO.N,col4*%
X118250000Y-50250000D03*
X124750000Y-50250000D03*
%TO.P,SW15,2,2*%
%TO.N,ro3*%
X118250000Y-54750000D03*
X124750000Y-54750000D03*
%TD*%
%TO.P,SW14,1,1*%
%TO.N,col2*%
X118250000Y-42250000D03*
X124750000Y-42250000D03*
%TO.P,SW14,2,2*%
%TO.N,Net-(D14-A)*%
X118250000Y-46750000D03*
X124750000Y-46750000D03*
%TD*%
%TO.P,SW13,1,1*%
%TO.N,col3*%
X108000000Y-66250000D03*
X114500000Y-66250000D03*
%TO.P,SW13,2,2*%
%TO.N,Net-(D15-A)*%
X108000000Y-70750000D03*
X114500000Y-70750000D03*
%TD*%
%TO.P,SW12,1,1*%
%TO.N,col4*%
X108000000Y-58250000D03*
X114500000Y-58250000D03*
%TO.P,SW12,2,2*%
%TO.N,Net-(D9-A)*%
X108000000Y-62750000D03*
X114500000Y-62750000D03*
%TD*%
%TO.P,SW11,1,1*%
%TO.N,col3*%
X108000000Y-50250000D03*
X114500000Y-50250000D03*
%TO.P,SW11,2,2*%
%TO.N,Net-(D10-A)*%
X108000000Y-54750000D03*
X114500000Y-54750000D03*
%TD*%
%TO.P,SW10,1,1*%
%TO.N,col2*%
X108000000Y-42250000D03*
X114500000Y-42250000D03*
%TO.P,SW10,2,2*%
%TO.N,Net-(D11-A)*%
X108000000Y-46750000D03*
X114500000Y-46750000D03*
%TD*%
%TO.P,SW9,1,1*%
%TO.N,col4*%
X97250000Y-66250000D03*
X103750000Y-66250000D03*
%TO.P,SW9,2,2*%
%TO.N,Net-(D8-A)*%
X97250000Y-70750000D03*
X103750000Y-70750000D03*
%TD*%
%TO.P,SW8,1,1*%
%TO.N,col3*%
X97250000Y-58250000D03*
X103750000Y-58250000D03*
%TO.P,SW8,2,2*%
%TO.N,Net-(D7-A)*%
X97250000Y-62750000D03*
X103750000Y-62750000D03*
%TD*%
%TO.P,SW7,1,1*%
%TO.N,col2*%
X97250000Y-50250000D03*
X103750000Y-50250000D03*
%TO.P,SW7,2,2*%
%TO.N,Net-(D6-A)*%
X97250000Y-54750000D03*
X103750000Y-54750000D03*
%TD*%
%TO.P,SW6,1,1*%
%TO.N,col4*%
X97250000Y-42250000D03*
X103750000Y-42250000D03*
%TO.P,SW6,2,2*%
%TO.N,Net-(D4-A)*%
X97250000Y-46750000D03*
X103750000Y-46750000D03*
%TD*%
%TO.P,SW5,1,1*%
%TO.N,col3*%
X83380000Y-66250000D03*
X89880000Y-66250000D03*
%TO.P,SW5,2,2*%
%TO.N,Net-(D3-A)*%
X83380000Y-70750000D03*
X89880000Y-70750000D03*
%TD*%
%TO.P,SW4,1,1*%
%TO.N,col2*%
X83250000Y-58250000D03*
X89750000Y-58250000D03*
%TO.P,SW4,2,2*%
%TO.N,Net-(D2-A)*%
X83250000Y-62750000D03*
X89750000Y-62750000D03*
%TD*%
%TO.P,SW3,1,1*%
%TO.N,col1*%
X83250000Y-50250000D03*
X89750000Y-50250000D03*
%TO.P,SW3,2,2*%
%TO.N,Net-(D5-A)*%
X83250000Y-54750000D03*
X89750000Y-54750000D03*
%TD*%
%TO.P,SW2,1,1*%
%TO.N,col1*%
X83250000Y-42250000D03*
X89750000Y-42250000D03*
%TO.P,SW2,2,2*%
%TO.N,Net-(D1-A)*%
X83250000Y-46750000D03*
X89750000Y-46750000D03*
%TD*%
D13*
%TO.P,SW1,1,A*%
%TO.N,meow*%
X96920000Y-24960000D03*
D14*
%TO.P,SW1,2,B*%
%TO.N,eee*%
X99460000Y-24960000D03*
%TO.P,SW1,3,C*%
%TO.N,unconnected-(SW1-C-Pad3)*%
X102000000Y-24960000D03*
%TO.P,SW1,4,KR*%
%TO.N,Net-(SW1-KR)*%
X96920000Y-27500000D03*
%TO.P,SW1,5,A*%
%TO.N,unconnected-(SW1-A-Pad5)*%
X99460000Y-27500000D03*
%TO.P,SW1,6,KG*%
%TO.N,Net-(SW1-KG)*%
X102000000Y-27500000D03*
%TD*%
D15*
%TO.P,R2,1*%
%TO.N,Net-(SW1-KG)*%
X95690000Y-37000000D03*
D16*
%TO.P,R2,2*%
%TO.N,two*%
X103310000Y-37000000D03*
%TD*%
D15*
%TO.P,R1,1*%
%TO.N,Net-(SW1-KR)*%
X95690000Y-32950000D03*
D16*
%TO.P,R1,2*%
%TO.N,one*%
X103310000Y-32950000D03*
%TD*%
D17*
%TO.P,DS2,1*%
%TO.N,Net-(U1-GPA3)*%
X118260000Y-34000000D03*
D18*
%TO.P,DS2,2*%
%TO.N,Net-(U1-GPA4)*%
X120800000Y-34000000D03*
%TO.P,DS2,3*%
%TO.N,Net-(U1-GPA0)*%
X123340000Y-34000000D03*
%TO.P,DS2,4*%
%TO.N,Net-(U1-GPA5)*%
X125880000Y-34000000D03*
%TO.P,DS2,5*%
%TO.N,Net-(U1-GPA1)*%
X128420000Y-34000000D03*
%TO.P,DS2,6*%
%TO.N,Net-(D9-A)*%
X130960000Y-34000000D03*
%TO.P,DS2,8*%
%TO.N,Net-(DS2-Pad8)*%
X133500000Y-23840000D03*
%TO.P,DS2,9*%
%TO.N,Net-(U1-GPA6)*%
X130960000Y-23840000D03*
%TO.P,DS2,10*%
%TO.N,Net-(DS2-Pad10)*%
X128420000Y-23840000D03*
%TO.P,DS2,11*%
%TO.N,Net-(DS2-Pad11)*%
X125880000Y-23840000D03*
%TO.P,DS2,12*%
%TO.N,Net-(U1-GPA2)*%
X123340000Y-23840000D03*
%TO.P,DS2,13*%
%TO.N,Net-(U1-GPA7)*%
X120800000Y-23840000D03*
%TO.P,DS2,14*%
%TO.N,Net-(DS2-Pad14)*%
X118260000Y-23840000D03*
%TO.P,DS2,7*%
%TO.N,N/C*%
X133500000Y-34000000D03*
%TD*%
D17*
%TO.P,DS1,1*%
%TO.N,Net-(U1-GPB3)*%
X65260000Y-34000000D03*
D18*
%TO.P,DS1,2*%
%TO.N,Net-(U1-GPB4)*%
X67800000Y-34000000D03*
%TO.P,DS1,3*%
%TO.N,Net-(U1-GPB0)*%
X70340000Y-34000000D03*
%TO.P,DS1,4*%
%TO.N,Net-(U1-GPB5)*%
X72880000Y-34000000D03*
%TO.P,DS1,5*%
%TO.N,Net-(U1-GPB1)*%
X75420000Y-34000000D03*
%TO.P,DS1,6*%
%TO.N,Net-(DS1-Pad6)*%
X77960000Y-34000000D03*
%TO.P,DS1,8*%
%TO.N,Net-(DS1-Pad8)*%
X80500000Y-23840000D03*
%TO.P,DS1,9*%
%TO.N,Net-(U1-GPB6)*%
X77960000Y-23840000D03*
%TO.P,DS1,10*%
%TO.N,Net-(DS1-Pad10)*%
X75420000Y-23840000D03*
%TO.P,DS1,11*%
%TO.N,Net-(DS1-Pad11)*%
X72880000Y-23840000D03*
%TO.P,DS1,12*%
%TO.N,Net-(U1-GPB2)*%
X70340000Y-23840000D03*
%TO.P,DS1,13*%
%TO.N,Net-(U1-GPB7)*%
X67800000Y-23840000D03*
%TO.P,DS1,14*%
%TO.N,Net-(DS1-Pad14)*%
X65260000Y-23840000D03*
%TO.P,DS1,7*%
%TO.N,N/C*%
X80500000Y-34000000D03*
%TD*%
D19*
%TO.P,D16,1,K*%
%TO.N,ro4*%
X72710700Y-86272700D03*
D16*
%TO.P,D16,2,A*%
%TO.N,ro3*%
X76520700Y-86272700D03*
%TD*%
D19*
%TO.P,D15,1,K*%
%TO.N,ro4*%
X72710700Y-82500000D03*
D16*
%TO.P,D15,2,A*%
%TO.N,Net-(D15-A)*%
X76520700Y-82500000D03*
%TD*%
D19*
%TO.P,D14,1,K*%
%TO.N,ro4*%
X72710700Y-78727300D03*
D16*
%TO.P,D14,2,A*%
%TO.N,Net-(D14-A)*%
X76520700Y-78727300D03*
%TD*%
D19*
%TO.P,D13,1,K*%
%TO.N,ro4*%
X72710700Y-74954500D03*
D16*
%TO.P,D13,2,A*%
%TO.N,Net-(D13-A)*%
X76520700Y-74954500D03*
%TD*%
D19*
%TO.P,D12,1,K*%
%TO.N,ro3*%
X65439300Y-93818200D03*
D16*
%TO.P,D12,2,A*%
%TO.N,Net-(D12-A)*%
X69249300Y-93818200D03*
%TD*%
D19*
%TO.P,D11,1,K*%
%TO.N,ro3*%
X65439300Y-90045500D03*
D16*
%TO.P,D11,2,A*%
%TO.N,Net-(D11-A)*%
X69249300Y-90045500D03*
%TD*%
D19*
%TO.P,D10,1,K*%
%TO.N,ro3*%
X65439300Y-86272700D03*
D16*
%TO.P,D10,2,A*%
%TO.N,Net-(D10-A)*%
X69249300Y-86272700D03*
%TD*%
D19*
%TO.P,D9,1,K*%
%TO.N,ro3*%
X65439300Y-82500000D03*
D16*
%TO.P,D9,2,A*%
%TO.N,Net-(D9-A)*%
X69249300Y-82500000D03*
%TD*%
D19*
%TO.P,D8,1,K*%
%TO.N,ro2*%
X65439300Y-78727300D03*
D16*
%TO.P,D8,2,A*%
%TO.N,Net-(D8-A)*%
X69249300Y-78727300D03*
%TD*%
D19*
%TO.P,D7,1,K*%
%TO.N,ro2*%
X65439300Y-74954500D03*
D16*
%TO.P,D7,2,A*%
%TO.N,Net-(D7-A)*%
X69249300Y-74954500D03*
%TD*%
D19*
%TO.P,D6,1,K*%
%TO.N,ro2*%
X58167900Y-93818200D03*
D16*
%TO.P,D6,2,A*%
%TO.N,Net-(D6-A)*%
X61977900Y-93818200D03*
%TD*%
D19*
%TO.P,D5,1,K*%
%TO.N,ro2*%
X58167900Y-90045500D03*
D16*
%TO.P,D5,2,A*%
%TO.N,Net-(D5-A)*%
X61977900Y-90045500D03*
%TD*%
D19*
%TO.P,D4,1,K*%
%TO.N,ro1*%
X58167900Y-86272700D03*
D16*
%TO.P,D4,2,A*%
%TO.N,Net-(D4-A)*%
X61977900Y-86272700D03*
%TD*%
D19*
%TO.P,D3,1,K*%
%TO.N,ro1*%
X58167900Y-82500000D03*
D16*
%TO.P,D3,2,A*%
%TO.N,Net-(D3-A)*%
X61977900Y-82500000D03*
%TD*%
D19*
%TO.P,D2,1,K*%
%TO.N,ro1*%
X58167900Y-78727300D03*
D16*
%TO.P,D2,2,A*%
%TO.N,Net-(D2-A)*%
X61977900Y-78727300D03*
%TD*%
D19*
%TO.P,D1,1,K*%
%TO.N,ro1*%
X58167900Y-74954500D03*
D16*
%TO.P,D1,2,A*%
%TO.N,Net-(D1-A)*%
X61977900Y-74954500D03*
%TD*%
D20*
%TO.N,Net-(U1-VSS)*%
X66296600Y-65048600D03*
X65719800Y-91931800D03*
%TO.N,Net-(U1-SCK)*%
X118735300Y-60601900D03*
%TO.N,col1*%
X112305900Y-67827300D03*
%TO.N,Net-(DS2-Pad8)*%
X131404500Y-92206700D03*
%TO.N,Net-(U1-GPA2)*%
X101573000Y-57359200D03*
X105292400Y-27078700D03*
%TO.N,Net-(DS2-Pad11)*%
X111067000Y-78616300D03*
%TO.N,Net-(U1-GPA5)*%
X126172500Y-53273300D03*
%TO.N,Net-(U1-GPA1)*%
X99008300Y-60368900D03*
X99261000Y-36003300D03*
%TO.N,Net-(U1-GPA6)*%
X122201300Y-54097100D03*
%TO.N,Net-(DS2-Pad10)*%
X128493200Y-64360600D03*
X78101800Y-65438600D03*
%TO.N,Net-(U1-GPA3)*%
X111244000Y-59377100D03*
%TO.N,Net-(U1-GPA0)*%
X122482500Y-59077400D03*
%TO.N,Net-(U1-GPA7)*%
X116664600Y-52625300D03*
%TO.N,Net-(U1-GPB5)*%
X71517000Y-58547700D03*
%TO.N,Net-(U1-GPB6)*%
X77389400Y-48367500D03*
%TO.N,Net-(U1-GPB4)*%
X65803200Y-57573000D03*
%TO.N,Net-(U1-GPB1)*%
X75333900Y-50063300D03*
%TO.N,Net-(U1-GPB2)*%
X66308500Y-55714500D03*
%TO.N,Net-(U1-GPB7)*%
X65540900Y-62285000D03*
%TO.N,Net-(U1-GPB3)*%
X65253200Y-50658300D03*
%TO.N,Net-(U1-GPB0)*%
X66606500Y-52557300D03*
%TO.N,Net-(D15-A)*%
X105230000Y-80485500D03*
%TO.N,Net-(D14-A)*%
X109838300Y-77931000D03*
%TO.N,Net-(D13-A)*%
X77731500Y-68308700D03*
%TO.N,Net-(D12-A)*%
X120785300Y-81369700D03*
%TO.N,Net-(D11-A)*%
X108612700Y-86303100D03*
%TO.N,Net-(D10-A)*%
X67777200Y-57205000D03*
%TO.N,Net-(D9-A)*%
X72132100Y-63587700D03*
X124439100Y-60899900D03*
%TO.N,Net-(D7-A)*%
X71064600Y-63043000D03*
X94352300Y-64299200D03*
%TO.N,Net-(D6-A)*%
X72277700Y-77336800D03*
X93591400Y-76600500D03*
%TO.N,Net-(D5-A)*%
X66294500Y-70770200D03*
X88777700Y-69547200D03*
%TO.N,Net-(D4-A)*%
X63679300Y-48929900D03*
%TO.N,Net-(D2-A)*%
X74020600Y-79459100D03*
X75843800Y-63327500D03*
%TO.N,Net-(D1-A)*%
X64045300Y-47928200D03*
%TD*%
D21*
%TO.N,Net-(U1-VSS)*%
X65438000Y-64190000D02*
X66296600Y-65048600D01*
X64200000Y-64190000D02*
X65438000Y-64190000D01*
X72733700Y-98945700D02*
X65719800Y-91931800D01*
X84519000Y-98945700D02*
X72733700Y-98945700D01*
X84750000Y-98714700D02*
X84519000Y-98945700D01*
X84750000Y-97307400D02*
X84750000Y-98714700D01*
X85223100Y-96834300D02*
X84750000Y-97307400D01*
X122696500Y-96834300D02*
X85223100Y-96834300D01*
X123224300Y-97362100D02*
X122696500Y-96834300D01*
X123224300Y-97890000D02*
X123224300Y-97362100D01*
X124280000Y-97890000D02*
X123224300Y-97890000D01*
%TO.N,Net-(U1-SCK)*%
X63717700Y-66730000D02*
X64200000Y-66730000D01*
X62830600Y-65842900D02*
X63717700Y-66730000D01*
X62830600Y-61352200D02*
X62830600Y-65842900D01*
X63166300Y-61016500D02*
X62830600Y-61352200D01*
X65231200Y-61016500D02*
X63166300Y-61016500D01*
X66499500Y-62284800D02*
X65231200Y-61016500D01*
X75667100Y-62284800D02*
X66499500Y-62284800D01*
X76533600Y-61418300D02*
X75667100Y-62284800D01*
X110112200Y-61418300D02*
X76533600Y-61418300D01*
X110928600Y-60601900D02*
X110112200Y-61418300D01*
X118735300Y-60601900D02*
X110928600Y-60601900D01*
%TO.N,Net-(U1-A0)*%
X73500000Y-68000000D02*
X73500000Y-66730000D01*
X124280000Y-80110000D02*
X123224300Y-80110000D01*
X73542100Y-69312100D02*
X75535400Y-69312100D01*
X73500000Y-69270000D02*
X73542100Y-69312100D01*
X74045700Y-68545700D02*
X73500000Y-68000000D01*
X74045700Y-68835000D02*
X74045700Y-68545700D01*
X74522800Y-69312100D02*
X74045700Y-68835000D01*
X75535400Y-69312100D02*
X74522800Y-69312100D01*
X81878100Y-69145800D02*
X81713300Y-69310600D01*
X81878100Y-69145800D02*
X81713300Y-69310600D01*
X75536900Y-69310600D02*
X75535400Y-69312100D01*
X81713300Y-69310600D02*
X75536900Y-69310600D01*
X82078400Y-68945500D02*
X81878100Y-69145800D01*
X104333400Y-68945500D02*
X82078400Y-68945500D01*
X114442200Y-79054300D02*
X104333400Y-68945500D01*
X122696500Y-79054300D02*
X114442200Y-79054300D01*
X123224300Y-79582100D02*
X122696500Y-79054300D01*
X123224300Y-80110000D02*
X123224300Y-79582100D01*
%TO.N,Net-(U1-SDA)*%
X69648400Y-68000000D02*
X64200000Y-68000000D01*
X71553400Y-66095000D02*
X69648400Y-68000000D01*
X80235400Y-66095000D02*
X71553400Y-66095000D01*
X81904500Y-67764100D02*
X80235400Y-66095000D01*
X110806900Y-67764100D02*
X81904500Y-67764100D01*
X111939600Y-68896800D02*
X110806900Y-67764100D01*
X124743700Y-68896800D02*
X111939600Y-68896800D01*
X129360000Y-73513100D02*
X124743700Y-68896800D01*
X129360000Y-80110000D02*
X129360000Y-73513100D01*
%TO.N,col4*%
X97250000Y-42250000D02*
X103750000Y-42250000D01*
X103750000Y-66250000D02*
X97250000Y-66250000D01*
X114500000Y-58250000D02*
X108000000Y-58250000D01*
X118250000Y-50250000D02*
X124750000Y-50250000D01*
%TO.N,col3*%
X108000000Y-50250000D02*
X114500000Y-50250000D01*
X108000000Y-66250000D02*
X114500000Y-66250000D01*
X103750000Y-58250000D02*
X97250000Y-58250000D01*
X83380000Y-66250000D02*
X89880000Y-66250000D01*
X106698300Y-64948300D02*
X108000000Y-66250000D01*
X95122100Y-64948300D02*
X106698300Y-64948300D01*
X93820400Y-66250000D02*
X95122100Y-64948300D01*
X89880000Y-66250000D02*
X93820400Y-66250000D01*
%TO.N,col2*%
X118250000Y-42250000D02*
X114500000Y-42250000D01*
X108000000Y-42250000D02*
X114500000Y-42250000D01*
X89750000Y-58250000D02*
X83250000Y-58250000D01*
X103750000Y-50250000D02*
X97250000Y-50250000D01*
X124750000Y-42250000D02*
X118250000Y-42250000D01*
%TO.N,col1*%
X118250000Y-58250000D02*
X124750000Y-58250000D01*
X89750000Y-42250000D02*
X83250000Y-42250000D01*
X83250000Y-50250000D02*
X89750000Y-50250000D01*
X124750000Y-66250000D02*
X118250000Y-66250000D01*
X115177000Y-67827300D02*
X115341700Y-67992000D01*
X112305900Y-67827300D02*
X115177000Y-67827300D01*
X115341700Y-67992000D02*
X115506500Y-67827200D01*
X115341700Y-67992000D02*
X115506500Y-67827200D01*
X116672800Y-67827200D02*
X115506500Y-67827200D01*
X118250000Y-66250000D02*
X116672800Y-67827200D01*
X91522200Y-52022200D02*
X89750000Y-50250000D01*
X125822100Y-52022200D02*
X91522200Y-52022200D01*
X126823900Y-53024000D02*
X125822100Y-52022200D01*
X126823900Y-56176100D02*
X126823900Y-53024000D01*
X124750000Y-58250000D02*
X126823900Y-56176100D01*
%TO.N,Net-(DS2-Pad8)*%
X81100000Y-97890000D02*
X82155700Y-97890000D01*
X82155700Y-97362100D02*
X82155700Y-97890000D01*
X84371200Y-95146600D02*
X82155700Y-97362100D01*
X128464600Y-95146600D02*
X84371200Y-95146600D01*
X131404500Y-92206700D02*
X128464600Y-95146600D01*
X131404500Y-92206700D02*
X128464600Y-95146600D01*
X128464600Y-95146600D02*
X131404500Y-92206700D01*
%TO.N,Net-(U1-GPA2)*%
X120101300Y-27078700D02*
X123340000Y-23840000D01*
X105292400Y-27078700D02*
X120101300Y-27078700D01*
X101106700Y-56892900D02*
X101573000Y-57359200D01*
X80958900Y-56892900D02*
X101106700Y-56892900D01*
X78741800Y-59110000D02*
X80958900Y-56892900D01*
X73500000Y-59110000D02*
X78741800Y-59110000D01*
%TO.N,Net-(DS2-Pad11)*%
X84695700Y-79582100D02*
X84695700Y-80110000D01*
X85661500Y-78616300D02*
X84695700Y-79582100D01*
X111067000Y-78616300D02*
X85661500Y-78616300D01*
X83640000Y-80110000D02*
X84695700Y-80110000D01*
%TO.N,Net-(U1-GPA5)*%
X125892500Y-52993300D02*
X126172500Y-53273300D01*
X117147500Y-52993300D02*
X125892500Y-52993300D01*
X116913800Y-53227000D02*
X117147500Y-52993300D01*
X116376000Y-53227000D02*
X116913800Y-53227000D01*
X116142300Y-52993300D02*
X116376000Y-53227000D01*
X81983500Y-52993300D02*
X116142300Y-52993300D01*
X81583300Y-53393500D02*
X81983500Y-52993300D01*
X72417400Y-53393500D02*
X81583300Y-53393500D01*
X72125000Y-53685900D02*
X72417400Y-53393500D01*
X72125000Y-54364500D02*
X72125000Y-53685900D01*
X73060500Y-55300000D02*
X72125000Y-54364500D01*
X73500000Y-55300000D02*
X73060500Y-55300000D01*
%TO.N,Net-(U1-GPA1)*%
X73511100Y-60368900D02*
X99008300Y-60368900D01*
X73500000Y-60380000D02*
X73511100Y-60368900D01*
X127570900Y-33150900D02*
X128420000Y-34000000D01*
X110939800Y-33150900D02*
X127570900Y-33150900D01*
X109665900Y-34424800D02*
X110939800Y-33150900D01*
X100839500Y-34424800D02*
X109665900Y-34424800D01*
X99261000Y-36003300D02*
X100839500Y-34424800D01*
%TO.N,Net-(U1-GPA4)*%
X73034400Y-56570000D02*
X73500000Y-56570000D01*
X71722000Y-55257600D02*
X73034400Y-56570000D01*
X71722000Y-52856100D02*
X71722000Y-55257600D01*
X73511400Y-51066700D02*
X71722000Y-52856100D01*
X75541100Y-51066700D02*
X73511400Y-51066700D01*
X78061300Y-48546500D02*
X75541100Y-51066700D01*
X103835800Y-48546500D02*
X78061300Y-48546500D01*
X106539400Y-45842900D02*
X103835800Y-48546500D01*
X106539400Y-41741900D02*
X106539400Y-45842900D01*
X109574900Y-38706400D02*
X106539400Y-41741900D01*
X116093600Y-38706400D02*
X109574900Y-38706400D01*
X120800000Y-34000000D02*
X116093600Y-38706400D01*
%TO.N,Net-(U1-GPA6)*%
X121549200Y-53445000D02*
X122201300Y-54097100D01*
X117263800Y-53445000D02*
X121549200Y-53445000D01*
X117066000Y-53642800D02*
X117263800Y-53445000D01*
X115416700Y-53642800D02*
X117066000Y-53642800D01*
X115218900Y-53445000D02*
X115416700Y-53642800D01*
X82288800Y-53445000D02*
X115218900Y-53445000D01*
X81703800Y-54030000D02*
X82288800Y-53445000D01*
X73500000Y-54030000D02*
X81703800Y-54030000D01*
%TO.N,Net-(DS2-Pad10)*%
X128353700Y-64500100D02*
X128493200Y-64360600D01*
X95002200Y-64500100D02*
X128353700Y-64500100D01*
X94954000Y-64548300D02*
X95002200Y-64500100D01*
X94954000Y-64548400D02*
X94954000Y-64548300D01*
X94601500Y-64900900D02*
X94954000Y-64548400D01*
X94519500Y-64900900D02*
X94601500Y-64900900D01*
X94518600Y-64901800D02*
X94519500Y-64900900D01*
X78638600Y-64901800D02*
X94518600Y-64901800D01*
X78101800Y-65438600D02*
X78638600Y-64901800D01*
%TO.N,Net-(U1-GPA3)*%
X111421600Y-59554700D02*
X111244000Y-59377100D01*
X115062600Y-59554700D02*
X111421600Y-59554700D01*
X115809900Y-58807400D02*
X115062600Y-59554700D01*
X115809900Y-57648600D02*
X115809900Y-58807400D01*
X114629800Y-56468500D02*
X115809900Y-57648600D01*
X80268200Y-56468500D02*
X114629800Y-56468500D01*
X78896700Y-57840000D02*
X80268200Y-56468500D01*
X73500000Y-57840000D02*
X78896700Y-57840000D01*
%TO.N,Net-(U1-GPA0)*%
X121571900Y-59988000D02*
X122482500Y-59077400D01*
X110097500Y-59988000D02*
X121571900Y-59988000D01*
X109068900Y-61016600D02*
X110097500Y-59988000D01*
X74133400Y-61016600D02*
X109068900Y-61016600D01*
X73500000Y-61650000D02*
X74133400Y-61016600D01*
%TO.N,Net-(U1-GPA7)*%
X116606100Y-52566800D02*
X116664600Y-52625300D01*
X73693200Y-52566800D02*
X116606100Y-52566800D01*
X73500000Y-52760000D02*
X73693200Y-52566800D01*
%TO.N,Net-(U1-GPB5)*%
X64762300Y-58547700D02*
X64200000Y-59110000D01*
X71517000Y-58547700D02*
X64762300Y-58547700D01*
%TO.N,Net-(U1-GPB6)*%
X75156300Y-48367500D02*
X73626800Y-49897000D01*
X77389400Y-48367500D02*
X75156300Y-48367500D01*
X73626800Y-49897000D02*
X73260500Y-50263300D01*
X73626800Y-49897000D02*
X73260500Y-50263300D01*
X63782500Y-60380000D02*
X64200000Y-60380000D01*
X62413900Y-59011400D02*
X63782500Y-60380000D01*
X62413900Y-52290000D02*
X62413900Y-59011400D01*
X64647300Y-50056600D02*
X62413900Y-52290000D01*
X73053800Y-50056600D02*
X64647300Y-50056600D01*
X73260500Y-50263300D02*
X73053800Y-50056600D01*
%TO.N,Net-(U1-GPB4)*%
X65536200Y-57840000D02*
X65803200Y-57573000D01*
X64200000Y-57840000D02*
X65536200Y-57840000D01*
%TO.N,Net-(U1-GPB1)*%
X67265800Y-54030000D02*
X64200000Y-54030000D01*
X70630800Y-50665000D02*
X67265800Y-54030000D01*
X74732200Y-50665000D02*
X70630800Y-50665000D01*
X75333900Y-50063300D02*
X74732200Y-50665000D01*
%TO.N,Net-(U1-GPB2)*%
X65894000Y-55300000D02*
X64200000Y-55300000D01*
X66308500Y-55714500D02*
X65894000Y-55300000D01*
%TO.N,Net-(U1-GPB7)*%
X64905900Y-61650000D02*
X65540900Y-62285000D01*
X64200000Y-61650000D02*
X64905900Y-61650000D01*
%TO.N,Net-(U1-GPB3)*%
X64098500Y-51813000D02*
X65253200Y-50658300D01*
X63458900Y-51813000D02*
X64098500Y-51813000D01*
X62815600Y-52456300D02*
X63458900Y-51813000D01*
X62815600Y-55661900D02*
X62815600Y-52456300D01*
X63723700Y-56570000D02*
X62815600Y-55661900D01*
X64200000Y-56570000D02*
X63723700Y-56570000D01*
%TO.N,Net-(U1-GPB0)*%
X64402700Y-52557300D02*
X64200000Y-52760000D01*
X66606500Y-52557300D02*
X64402700Y-52557300D01*
%TO.N,Net-(D15-A)*%
X114500000Y-70750000D02*
X108000000Y-70750000D01*
X103554800Y-82500000D02*
X76520700Y-82500000D01*
X105230000Y-80824800D02*
X103554800Y-82500000D01*
X105230000Y-80485500D02*
X105230000Y-80824800D01*
%TO.N,Net-(D14-A)*%
X124750000Y-46750000D02*
X118250000Y-46750000D01*
X78418700Y-77931000D02*
X77622400Y-78727300D01*
X109838300Y-77931000D02*
X78418700Y-77931000D01*
X76520700Y-78727300D02*
X77622400Y-78727300D01*
%TO.N,ro4*%
X114120000Y-80110000D02*
X113064300Y-80110000D01*
X72710700Y-78727300D02*
X73812400Y-78727300D01*
X75210400Y-77329300D02*
X73812400Y-78727300D01*
X110843100Y-77329300D02*
X75210400Y-77329300D01*
X113064300Y-79550500D02*
X110843100Y-77329300D01*
X113064300Y-80110000D02*
X113064300Y-79550500D01*
%TO.N,Net-(D13-A)*%
X124750000Y-70750000D02*
X118250000Y-70750000D01*
X77797600Y-68374800D02*
X77731500Y-68308700D01*
X110849600Y-68374800D02*
X77797600Y-68374800D01*
X111773300Y-69298500D02*
X110849600Y-68374800D01*
X116798500Y-69298500D02*
X111773300Y-69298500D01*
X118250000Y-70750000D02*
X116798500Y-69298500D01*
%TO.N,Net-(D12-A)*%
X118250000Y-62750000D02*
X124750000Y-62750000D01*
X70351000Y-93818100D02*
X70351000Y-93818200D01*
X108336900Y-93818100D02*
X70351000Y-93818100D01*
X120785300Y-81369700D02*
X108336900Y-93818100D01*
X69249300Y-93818200D02*
X70351000Y-93818200D01*
%TO.N,Net-(D11-A)*%
X114500000Y-46750000D02*
X108000000Y-46750000D01*
X104870300Y-90045500D02*
X69249300Y-90045500D01*
X108612700Y-86303100D02*
X104870300Y-90045500D01*
%TO.N,Net-(D10-A)*%
X114500000Y-54750000D02*
X108000000Y-54750000D01*
X78868400Y-57205000D02*
X67777200Y-57205000D01*
X80006600Y-56066800D02*
X78868400Y-57205000D01*
X106683200Y-56066800D02*
X80006600Y-56066800D01*
X108000000Y-54750000D02*
X106683200Y-56066800D01*
%TO.N,ro3*%
X118250000Y-54750000D02*
X124750000Y-54750000D01*
X76520700Y-86272700D02*
X75419000Y-86272700D01*
X65439300Y-86272700D02*
X66541000Y-86272700D01*
X79923700Y-83971400D02*
X77622400Y-86272700D01*
X112270700Y-83971400D02*
X79923700Y-83971400D01*
X115604300Y-80637800D02*
X112270700Y-83971400D01*
X115604300Y-80110000D02*
X115604300Y-80637800D01*
X116660000Y-80110000D02*
X115604300Y-80110000D01*
X76520700Y-86272700D02*
X77622400Y-86272700D01*
X67642700Y-87374400D02*
X66541000Y-86272700D01*
X69814100Y-87374400D02*
X67642700Y-87374400D01*
X71435600Y-85752900D02*
X69814100Y-87374400D01*
X71435600Y-85521100D02*
X71435600Y-85752900D01*
X71785700Y-85171000D02*
X71435600Y-85521100D01*
X73635700Y-85171000D02*
X71785700Y-85171000D01*
X74737300Y-86272600D02*
X73635700Y-85171000D01*
X74737300Y-86272700D02*
X74737300Y-86272600D01*
X75419000Y-86272700D02*
X74737300Y-86272700D01*
%TO.N,Net-(D9-A)*%
X108000000Y-62750000D02*
X114500000Y-62750000D01*
X124123100Y-61215900D02*
X124439100Y-60899900D01*
X116034100Y-61215900D02*
X124123100Y-61215900D01*
X114500000Y-62750000D02*
X116034100Y-61215900D01*
X74562400Y-63587700D02*
X72132100Y-63587700D01*
X75072900Y-64098200D02*
X74562400Y-63587700D01*
X93702500Y-64098200D02*
X75072900Y-64098200D01*
X94103200Y-63697500D02*
X93702500Y-64098200D01*
X94601500Y-63697500D02*
X94103200Y-63697500D01*
X95002300Y-64098300D02*
X94601500Y-63697500D01*
X106651700Y-64098300D02*
X95002300Y-64098300D01*
X108000000Y-62750000D02*
X106651700Y-64098300D01*
%TO.N,Net-(D8-A)*%
X103750000Y-70750000D02*
X97250000Y-70750000D01*
X69249300Y-78727300D02*
X70351000Y-78727300D01*
X70351000Y-78412700D02*
X70351000Y-78727300D01*
X72665500Y-76098200D02*
X70351000Y-78412700D01*
X91901800Y-76098200D02*
X72665500Y-76098200D01*
X97250000Y-70750000D02*
X91901800Y-76098200D01*
%TO.N,Net-(D7-A)*%
X103750000Y-62750000D02*
X97250000Y-62750000D01*
X71064600Y-63453800D02*
X71064600Y-63043000D01*
X72435800Y-64825000D02*
X71064600Y-63453800D01*
X77866700Y-64825000D02*
X72435800Y-64825000D01*
X78191600Y-64500100D02*
X77866700Y-64825000D01*
X94151400Y-64500100D02*
X78191600Y-64500100D01*
X94352300Y-64299200D02*
X94151400Y-64500100D01*
X71064600Y-63043000D02*
X71064600Y-63453800D01*
X71064600Y-63453800D02*
X71064600Y-63043000D01*
%TO.N,Net-(D6-A)*%
X103750000Y-54750000D02*
X97250000Y-54750000D01*
X73014000Y-76600500D02*
X93591400Y-76600500D01*
X72277700Y-77336800D02*
X73014000Y-76600500D01*
%TO.N,ro2*%
X65439300Y-78727300D02*
X66541000Y-78727300D01*
X65439300Y-74954500D02*
X66541000Y-74954500D01*
X66541000Y-74954500D02*
X66541000Y-78727300D01*
X58167900Y-93818200D02*
X59269600Y-93818200D01*
X119200000Y-97890000D02*
X118144300Y-97890000D01*
X67213700Y-65460000D02*
X67198700Y-65445000D01*
X73500000Y-65460000D02*
X67213700Y-65460000D01*
X65439300Y-74954500D02*
X65439300Y-73852800D01*
X62829700Y-71243200D02*
X65439300Y-73852800D01*
X62829700Y-67669200D02*
X62829700Y-71243200D01*
X63133900Y-67365000D02*
X62829700Y-67669200D01*
X65278700Y-67365000D02*
X63133900Y-67365000D01*
X67198700Y-65445000D02*
X65278700Y-67365000D01*
X65018900Y-62920000D02*
X64200000Y-62920000D01*
X67198700Y-65099800D02*
X65018900Y-62920000D01*
X67198700Y-65445000D02*
X67198700Y-65099800D01*
X118144300Y-98417900D02*
X118144300Y-97890000D01*
X117214800Y-99347400D02*
X118144300Y-98417900D01*
X64798800Y-99347400D02*
X117214800Y-99347400D01*
X59269600Y-93818200D02*
X64798800Y-99347400D01*
%TO.N,Net-(D5-A)*%
X89750000Y-54750000D02*
X83250000Y-54750000D01*
X88670700Y-69440200D02*
X88777700Y-69547200D01*
X82351900Y-69440200D02*
X88670700Y-69440200D01*
X81657300Y-70134800D02*
X82351900Y-69440200D01*
X66929900Y-70134800D02*
X81657300Y-70134800D01*
X66294500Y-70770200D02*
X66929900Y-70134800D01*
%TO.N,Net-(D4-A)*%
X103750000Y-46750000D02*
X97250000Y-46750000D01*
X71399800Y-48929900D02*
X63679300Y-48929900D01*
X72607500Y-47722200D02*
X71399800Y-48929900D01*
X77595000Y-47722200D02*
X72607500Y-47722200D01*
X77946500Y-48073700D02*
X77595000Y-47722200D01*
X95926300Y-48073700D02*
X77946500Y-48073700D01*
X97250000Y-46750000D02*
X95926300Y-48073700D01*
%TO.N,Net-(D3-A)*%
X83380000Y-70750000D02*
X89880000Y-70750000D01*
X61977900Y-82500000D02*
X63079600Y-82500000D01*
X74821600Y-70750000D02*
X83380000Y-70750000D01*
X71013600Y-74558000D02*
X74821600Y-70750000D01*
X71013600Y-75210900D02*
X71013600Y-74558000D01*
X64826200Y-81398300D02*
X71013600Y-75210900D01*
X64181300Y-81398300D02*
X64826200Y-81398300D01*
X63079600Y-82500000D02*
X64181300Y-81398300D01*
%TO.N,Net-(D2-A)*%
X89750000Y-62750000D02*
X83250000Y-62750000D01*
X82672500Y-63327500D02*
X83250000Y-62750000D01*
X75843800Y-63327500D02*
X82672500Y-63327500D01*
X61977900Y-78727300D02*
X61977900Y-79829000D01*
X73598500Y-79881200D02*
X74020600Y-79459100D01*
X70084800Y-79881200D02*
X73598500Y-79881200D01*
X66364300Y-83601700D02*
X70084800Y-79881200D01*
X61521500Y-83601700D02*
X66364300Y-83601700D01*
X60854500Y-82934700D02*
X61521500Y-83601700D01*
X60854500Y-80952400D02*
X60854500Y-82934700D01*
X61977900Y-79829000D02*
X60854500Y-80952400D01*
%TO.N,Net-(D1-A)*%
X89750000Y-46750000D02*
X83250000Y-46750000D01*
X65223500Y-46750000D02*
X83250000Y-46750000D01*
X64045300Y-47928200D02*
X65223500Y-46750000D01*
%TO.N,ro1*%
X88720000Y-80110000D02*
X87664300Y-80110000D01*
X58167900Y-82500000D02*
X59269600Y-82500000D01*
X87664300Y-80637900D02*
X87664300Y-80110000D01*
X86903900Y-81398300D02*
X87664300Y-80637900D01*
X75839000Y-81398300D02*
X86903900Y-81398300D01*
X75839000Y-81398400D02*
X75839000Y-81398300D01*
X73234000Y-84003400D02*
X75839000Y-81398400D01*
X60773000Y-84003400D02*
X73234000Y-84003400D01*
X59269600Y-82500000D02*
X60773000Y-84003400D01*
%TD*%
M02*
