M48
; DRILL file {KiCad 8.0.8} date 2025-05-29T15:05:00-0400
; FORMAT={-:-/ absolute / inch / decimal}
; #@! TF.CreationDate,2025-05-29T15:05:00-04:00
; #@! TF.GenerationSoftware,Kicad,Pcbnew,8.0.8
; #@! TF.FileFunction,Plated,1,2,PTH
FMAT,2
INCH
; #@! TA.AperFunction,Plated,PTH,ViaDrill
T1C0.0118
; #@! TA.AperFunction,Plated,PTH,ComponentDrill
T2C0.0236
; #@! TA.AperFunction,Plated,PTH,ComponentDrill
T3C0.0256
; #@! TA.AperFunction,Plated,PTH,ComponentDrill
T4C0.0315
; #@! TA.AperFunction,Plated,PTH,ComponentDrill
T5C0.0394
; #@! TA.AperFunction,Plated,PTH,ComponentDrill
T6C0.0433
%
G90
G05
T1
X2.5071Y-1.9264
X2.5215Y-1.8869
X2.569Y-1.9944
X2.5804Y-2.4522
X2.5874Y-3.6194
X2.5907Y-2.2667
X2.61Y-2.7862
X2.6101Y-2.561
X2.6106Y-2.1935
X2.6223Y-2.0692
X2.6684Y-2.2522
X2.7978Y-2.482
X2.8156Y-2.305
X2.8398Y-2.5035
X2.8456Y-3.0448
X2.9142Y-3.1283
X2.9659Y-1.971
X2.986Y-2.4932
X3.0468Y-1.9042
X3.0603Y-2.6893
X3.0749Y-2.5763
X3.4952Y-2.7381
X3.6847Y-3.0158
X3.7147Y-2.5315
X3.898Y-2.3767
X3.9079Y-1.4175
X3.9989Y-2.2582
X4.1429Y-3.1687
X4.1454Y-1.0661
X4.2761Y-3.3978
X4.3243Y-3.0681
X4.3727Y-3.0951
X4.3797Y-2.3377
X4.4215Y-2.6704
X4.5931Y-2.0719
X4.6746Y-2.3859
X4.7553Y-3.2035
X4.8111Y-2.1298
X4.8221Y-2.3259
X4.8992Y-2.3976
X4.9674Y-2.0974
X5.0588Y-2.5339
X5.1734Y-3.6302
T2
X3.8157Y-0.9827
X3.8157Y-1.0827
X3.9157Y-0.9827
X3.9157Y-1.0827
X4.0157Y-0.9827
X4.0157Y-1.0827
T3
X2.5693Y-0.9386
X2.5693Y-1.3386
X2.6693Y-0.9386
X2.6693Y-1.3386
X2.7693Y-0.9386
X2.7693Y-1.3386
X2.8693Y-0.9386
X2.8693Y-1.3386
X2.9693Y-0.9386
X2.9693Y-1.3386
X3.0693Y-0.9386
X3.0693Y-1.3386
X3.1693Y-0.9386
X3.1693Y-1.3386
X4.6559Y-0.9386
X4.6559Y-1.3386
X4.7559Y-0.9386
X4.7559Y-1.3386
X4.8559Y-0.9386
X4.8559Y-1.3386
X4.9559Y-0.9386
X4.9559Y-1.3386
X5.0559Y-0.9386
X5.0559Y-1.3386
X5.1559Y-0.9386
X5.1559Y-1.3386
X5.2559Y-0.9386
X5.2559Y-1.3386
T4
X2.2901Y-2.951
X2.2901Y-3.0995
X2.2901Y-3.248
X2.2901Y-3.3966
X2.2901Y-3.5451
X2.2901Y-3.6936
X2.4401Y-2.951
X2.4401Y-3.0995
X2.4401Y-3.248
X2.4401Y-3.3966
X2.4401Y-3.5451
X2.4401Y-3.6936
X2.5764Y-2.951
X2.5764Y-3.0995
X2.5764Y-3.248
X2.5764Y-3.3966
X2.5764Y-3.5451
X2.5764Y-3.6936
X2.7264Y-2.951
X2.7264Y-3.0995
X2.7264Y-3.248
X2.7264Y-3.3966
X2.7264Y-3.5451
X2.7264Y-3.6936
X2.8626Y-2.951
X2.8626Y-3.0995
X2.8626Y-3.248
X2.8626Y-3.3966
X3.0126Y-2.951
X3.0126Y-3.0995
X3.0126Y-3.248
X3.0126Y-3.3966
X3.7673Y-1.2972
X3.7673Y-1.4567
X4.0673Y-1.2972
X4.0673Y-1.4567
T5
X3.1929Y-3.1539
X3.1929Y-3.8539
X3.2929Y-3.1539
X3.2929Y-3.8539
X3.3929Y-3.1539
X3.3929Y-3.8539
X3.4929Y-3.1539
X3.4929Y-3.8539
X3.5929Y-3.1539
X3.5929Y-3.8539
X3.6929Y-3.1539
X3.6929Y-3.8539
X3.7929Y-3.1539
X3.7929Y-3.8539
X3.8929Y-3.1539
X3.8929Y-3.8539
X3.9929Y-3.1539
X3.9929Y-3.8539
X4.0929Y-3.1539
X4.0929Y-3.8539
X4.1929Y-3.1539
X4.1929Y-3.8539
X4.2929Y-3.1539
X4.2929Y-3.8539
X4.3929Y-3.1539
X4.3929Y-3.8539
X4.4929Y-3.1539
X4.4929Y-3.8539
X4.5929Y-3.1539
X4.5929Y-3.8539
X4.6929Y-3.1539
X4.6929Y-3.8539
X4.7929Y-3.1539
X4.7929Y-3.8539
X4.8929Y-3.1539
X4.8929Y-3.8539
X4.9929Y-3.1539
X4.9929Y-3.8539
X5.0929Y-3.1539
X5.0929Y-3.8539
T6
X3.2776Y-1.6634
X3.2776Y-1.8406
X3.2776Y-1.9783
X3.2776Y-2.1555
X3.2776Y-2.2933
X3.2776Y-2.4705
X3.2827Y-2.6083
X3.2827Y-2.7854
X3.5335Y-1.6634
X3.5335Y-1.8406
X3.5335Y-1.9783
X3.5335Y-2.1555
X3.5335Y-2.2933
X3.5335Y-2.4705
X3.5386Y-2.6083
X3.5386Y-2.7854
X3.8287Y-1.6634
X3.8287Y-1.8406
X3.8287Y-1.9783
X3.8287Y-2.1555
X3.8287Y-2.2933
X3.8287Y-2.4705
X3.8287Y-2.6083
X3.8287Y-2.7854
X4.0846Y-1.6634
X4.0846Y-1.8406
X4.0846Y-1.9783
X4.0846Y-2.1555
X4.0846Y-2.2933
X4.0846Y-2.4705
X4.0846Y-2.6083
X4.0846Y-2.7854
X4.252Y-1.6634
X4.252Y-1.8406
X4.252Y-1.9783
X4.252Y-2.1555
X4.252Y-2.2933
X4.252Y-2.4705
X4.252Y-2.6083
X4.252Y-2.7854
X4.5079Y-1.6634
X4.5079Y-1.8406
X4.5079Y-1.9783
X4.5079Y-2.1555
X4.5079Y-2.2933
X4.5079Y-2.4705
X4.5079Y-2.6083
X4.5079Y-2.7854
X4.6555Y-1.6634
X4.6555Y-1.8406
X4.6555Y-1.9783
X4.6555Y-2.1555
X4.6555Y-2.2933
X4.6555Y-2.4705
X4.6555Y-2.6083
X4.6555Y-2.7854
X4.9114Y-1.6634
X4.9114Y-1.8406
X4.9114Y-1.9783
X4.9114Y-2.1555
X4.9114Y-2.2933
X4.9114Y-2.4705
X4.9114Y-2.6083
X4.9114Y-2.7854
M30
